<svg xmlns="http://www.w3.org/2000/svg" width="17" height="12" fill="none" viewBox="0 0 17 12">
    <g clip-path="url(#clip0)">
        <path fill="#fff" d="M337-4864h-1920v6874H337v-6874z"/>
        <path fill="#D5D5D5" d="M16.728 2.836l-.557-.558c-.175-.173-.411-.27-.657-.27-.247 0-.483.097-.658.27L8.5 8.602 2.14 2.268c-.175-.173-.411-.27-.658-.27-.246 0-.482.097-.657.27l-.557.555c-.086.086-.155.188-.201.3-.047.113-.071.233-.071.355 0 .122.024.242.07.354.047.113.116.215.202.3l7.576 7.57c.172.183.408.29.659.3.25-.01.486-.118.657-.3l7.565-7.547c.174-.176.272-.413.272-.66 0-.247-.098-.485-.272-.66h.003z"/>
    </g>
    <defs>
        <clipPath id="clip0">
            <path fill="#fff" d="M0 0H1920V6874H0z" transform="translate(-1583 -4864)"/>
        </clipPath>
    </defs>
</svg>
