<svg width="571" height="428" viewBox="0 0 571 428" fill="none" xmlns="http://www.w3.org/2000/svg">
<path d="M387.202 366V171.971C387.202 171.971 382.802 139.021 415.038 139.021H526.117C526.117 139.021 557 137.013 557 171.971V366" fill="#F8F8F8"/>
<path d="M210.202 367V172.971C210.202 172.971 205.802 140.021 238.038 140.021H349.117C349.117 140.021 380 138.013 380 172.971V367" fill="#F8F8F8"/>
<path d="M16.2019 367V172.971C16.2019 172.971 11.8024 140.021 44.0384 140.021H155.117C155.117 140.021 186 138.013 186 172.971V367" fill="#F8F8F8"/>
<path d="M230.574 212V200.106H228.373V197.207H230.574V195.949C230.574 194.29 231.048 193.005 231.996 192.094C232.953 191.173 234.288 190.713 236.002 190.713C236.549 190.713 237.219 190.804 238.011 190.986L237.97 194.049C237.642 193.967 237.241 193.926 236.767 193.926C235.282 193.926 234.539 194.623 234.539 196.018V197.207H237.478V200.106H234.539V212H230.574ZM247.261 212C247.079 211.645 246.947 211.203 246.865 210.674C245.908 211.74 244.664 212.274 243.132 212.274C241.683 212.274 240.48 211.854 239.523 211.016C238.575 210.177 238.101 209.12 238.101 207.844C238.101 206.276 238.68 205.073 239.838 204.234C241.004 203.396 242.686 202.972 244.882 202.963H246.701V202.115C246.701 201.432 246.523 200.885 246.168 200.475C245.821 200.065 245.27 199.859 244.513 199.859C243.848 199.859 243.324 200.019 242.941 200.338C242.567 200.657 242.38 201.095 242.38 201.651H238.429C238.429 200.794 238.694 200.001 239.222 199.272C239.751 198.542 240.498 197.973 241.464 197.563C242.431 197.143 243.515 196.934 244.718 196.934C246.541 196.934 247.986 197.394 249.052 198.315C250.128 199.226 250.666 200.511 250.666 202.17V208.582C250.675 209.986 250.871 211.048 251.254 211.768V212H247.261ZM243.994 209.252C244.577 209.252 245.115 209.124 245.607 208.869C246.099 208.605 246.464 208.254 246.701 207.817V205.274H245.224C243.246 205.274 242.194 205.957 242.066 207.324L242.052 207.557C242.052 208.049 242.226 208.455 242.572 208.774C242.918 209.093 243.392 209.252 243.994 209.252ZM259.013 209.088C259.742 209.088 260.335 208.887 260.79 208.486C261.246 208.085 261.483 207.552 261.501 206.887H265.206C265.197 207.889 264.924 208.81 264.386 209.649C263.848 210.478 263.11 211.125 262.171 211.59C261.242 212.046 260.212 212.274 259.081 212.274C256.967 212.274 255.299 211.604 254.078 210.264C252.856 208.915 252.246 207.055 252.246 204.686V204.426C252.246 202.147 252.852 200.329 254.064 198.971C255.276 197.613 256.94 196.934 259.054 196.934C260.904 196.934 262.386 197.462 263.498 198.52C264.619 199.568 265.188 200.967 265.206 202.717H261.501C261.483 201.951 261.246 201.332 260.79 200.858C260.335 200.374 259.733 200.133 258.986 200.133C258.065 200.133 257.368 200.47 256.894 201.145C256.429 201.81 256.197 202.895 256.197 204.399V204.809C256.197 206.331 256.429 207.425 256.894 208.09C257.359 208.755 258.065 209.088 259.013 209.088ZM273.431 212.274C271.262 212.274 269.493 211.608 268.126 210.277C266.768 208.947 266.089 207.174 266.089 204.959V204.576C266.089 203.091 266.376 201.764 266.95 200.598C267.525 199.422 268.336 198.52 269.384 197.891C270.441 197.253 271.644 196.934 272.993 196.934C275.017 196.934 276.607 197.572 277.765 198.848C278.932 200.124 279.515 201.933 279.515 204.276V205.889H270.095C270.223 206.855 270.605 207.63 271.243 208.213C271.891 208.796 272.706 209.088 273.691 209.088C275.213 209.088 276.402 208.537 277.259 207.434L279.2 209.608C278.608 210.446 277.806 211.102 276.794 211.576C275.783 212.041 274.661 212.274 273.431 212.274ZM272.98 200.133C272.196 200.133 271.558 200.397 271.066 200.926C270.583 201.455 270.273 202.211 270.136 203.195H275.632V202.881C275.614 202.006 275.377 201.332 274.921 200.858C274.465 200.374 273.818 200.133 272.98 200.133ZM294.261 204.74C294.261 207.11 293.755 208.96 292.743 210.291C291.732 211.613 290.319 212.274 288.505 212.274C286.901 212.274 285.62 211.658 284.663 210.428L284.485 212H280.931V191H284.882V198.533C285.793 197.467 286.992 196.934 288.478 196.934C290.282 196.934 291.695 197.599 292.716 198.93C293.746 200.251 294.261 202.115 294.261 204.522V204.74ZM290.31 204.453C290.31 202.958 290.073 201.869 289.599 201.186C289.125 200.493 288.418 200.147 287.48 200.147C286.222 200.147 285.356 200.662 284.882 201.692V207.529C285.365 208.568 286.24 209.088 287.507 209.088C288.783 209.088 289.622 208.459 290.023 207.201C290.214 206.6 290.31 205.684 290.31 204.453ZM295.253 204.467C295.253 202.999 295.535 201.692 296.101 200.543C296.666 199.395 297.477 198.506 298.534 197.877C299.601 197.248 300.836 196.934 302.239 196.934C304.235 196.934 305.862 197.544 307.12 198.766C308.387 199.987 309.093 201.646 309.239 203.742L309.267 204.754C309.267 207.024 308.633 208.846 307.366 210.223C306.099 211.59 304.399 212.274 302.267 212.274C300.134 212.274 298.429 211.59 297.153 210.223C295.886 208.856 295.253 206.996 295.253 204.645V204.467ZM299.204 204.754C299.204 206.158 299.468 207.233 299.997 207.981C300.526 208.719 301.282 209.088 302.267 209.088C303.224 209.088 303.971 208.723 304.509 207.994C305.047 207.256 305.315 206.08 305.315 204.467C305.315 203.091 305.047 202.024 304.509 201.268C303.971 200.511 303.214 200.133 302.239 200.133C301.273 200.133 300.526 200.511 299.997 201.268C299.468 202.015 299.204 203.177 299.204 204.754ZM310.245 204.467C310.245 202.999 310.527 201.692 311.093 200.543C311.658 199.395 312.469 198.506 313.526 197.877C314.593 197.248 315.828 196.934 317.231 196.934C319.227 196.934 320.854 197.544 322.112 198.766C323.379 199.987 324.085 201.646 324.231 203.742L324.259 204.754C324.259 207.024 323.625 208.846 322.358 210.223C321.091 211.59 319.391 212.274 317.259 212.274C315.126 212.274 313.421 211.59 312.145 210.223C310.878 208.856 310.245 206.996 310.245 204.645V204.467ZM314.196 204.754C314.196 206.158 314.46 207.233 314.989 207.981C315.518 208.719 316.274 209.088 317.259 209.088C318.216 209.088 318.963 208.723 319.501 207.994C320.039 207.256 320.307 206.08 320.307 204.467C320.307 203.091 320.039 202.024 319.501 201.268C318.963 200.511 318.207 200.133 317.231 200.133C316.265 200.133 315.518 200.511 314.989 201.268C314.46 202.015 314.196 203.177 314.196 204.754ZM331.225 206.067L329.803 207.488V212H325.852V191H329.803V202.635L330.569 201.651L334.356 197.207H339.1L333.755 203.373L339.565 212H335.026L331.225 206.067Z" fill="#676767"/>
<path d="M80.9933 212.484C80.255 213.369 79.2114 214.057 77.8624 214.549C76.5135 215.032 75.0187 215.274 73.3781 215.274C71.6554 215.274 70.1424 214.9 68.839 214.152C67.5447 213.396 66.5421 212.302 65.8312 210.871C65.1294 209.44 64.7694 207.759 64.7511 205.826V204.473C64.7511 202.486 65.0838 200.768 65.7492 199.318C66.4236 197.86 67.3898 196.748 68.6476 195.983C69.9145 195.208 71.3957 194.82 73.091 194.82C75.4516 194.82 77.2973 195.386 78.6281 196.516C79.9588 197.637 80.7472 199.273 80.9933 201.424H77.0011C76.8188 200.285 76.4132 199.451 75.7843 198.922C75.1645 198.393 74.3078 198.129 73.214 198.129C71.8195 198.129 70.7576 198.653 70.0285 199.701C69.2993 200.749 68.9302 202.308 68.921 204.377V205.649C68.921 207.736 69.3175 209.313 70.1105 210.379C70.9035 211.445 72.0656 211.979 73.5968 211.979C75.1372 211.979 76.2355 211.651 76.8917 210.994V207.563H73.1593V204.541H80.9933V212.484ZM82.6142 207.467C82.6142 205.999 82.8968 204.692 83.4619 203.543C84.027 202.395 84.8382 201.506 85.8955 200.877C86.9619 200.248 88.1969 199.934 89.6006 199.934C91.5967 199.934 93.2236 200.544 94.4814 201.766C95.7484 202.987 96.4547 204.646 96.6006 206.742L96.6279 207.754C96.6279 210.024 95.9945 211.846 94.7275 213.223C93.4606 214.59 91.7607 215.274 89.6279 215.274C87.4951 215.274 85.7907 214.59 84.5146 213.223C83.2477 211.856 82.6142 209.996 82.6142 207.645V207.467ZM86.5654 207.754C86.5654 209.158 86.8297 210.233 87.3584 210.981C87.887 211.719 88.6435 212.088 89.6279 212.088C90.5849 212.088 91.3323 211.723 91.8701 210.994C92.4079 210.256 92.6767 209.08 92.6767 207.467C92.6767 206.091 92.4079 205.024 91.8701 204.268C91.3323 203.511 90.5758 203.133 89.6006 203.133C88.6344 203.133 87.887 203.511 87.3584 204.268C86.8297 205.015 86.5654 206.177 86.5654 207.754ZM97.6063 207.467C97.6063 205.999 97.8888 204.692 98.4539 203.543C99.019 202.395 99.8302 201.506 100.888 200.877C101.954 200.248 103.189 199.934 104.593 199.934C106.589 199.934 108.216 200.544 109.473 201.766C110.74 202.987 111.447 204.646 111.593 206.742L111.62 207.754C111.62 210.024 110.986 211.846 109.72 213.223C108.453 214.59 106.753 215.274 104.62 215.274C102.487 215.274 100.783 214.59 99.5067 213.223C98.2397 211.856 97.6063 209.996 97.6063 207.645V207.467ZM101.557 207.754C101.557 209.158 101.822 210.233 102.35 210.981C102.879 211.719 103.636 212.088 104.62 212.088C105.577 212.088 106.324 211.723 106.862 210.994C107.4 210.256 107.669 209.08 107.669 207.467C107.669 206.091 107.4 205.024 106.862 204.268C106.324 203.511 105.568 203.133 104.593 203.133C103.626 203.133 102.879 203.511 102.35 204.268C101.822 205.015 101.557 206.177 101.557 207.754ZM112.639 207.494C112.639 205.225 113.177 203.397 114.253 202.012C115.337 200.626 116.796 199.934 118.628 199.934C120.25 199.934 121.512 200.49 122.415 201.602L122.579 200.207H126.161V214.508C126.161 215.802 125.865 216.928 125.272 217.885C124.689 218.842 123.864 219.571 122.798 220.072C121.731 220.574 120.482 220.824 119.051 220.824C117.967 220.824 116.91 220.606 115.88 220.168C114.85 219.74 114.07 219.184 113.542 218.5L115.292 216.094C116.276 217.197 117.47 217.748 118.874 217.748C119.922 217.748 120.738 217.466 121.321 216.901C121.904 216.345 122.196 215.552 122.196 214.522V213.729C121.285 214.759 120.086 215.274 118.6 215.274C116.823 215.274 115.383 214.581 114.28 213.195C113.186 211.801 112.639 209.955 112.639 207.658V207.494ZM116.59 207.781C116.59 209.121 116.859 210.174 117.397 210.94C117.935 211.696 118.673 212.074 119.612 212.074C120.815 212.074 121.676 211.623 122.196 210.721V204.5C121.667 203.598 120.815 203.147 119.639 203.147C118.691 203.147 117.944 203.534 117.397 204.309C116.859 205.083 116.59 206.241 116.59 207.781ZM132.54 215H128.575V194H132.54V215ZM141.776 215.274C139.606 215.274 137.838 214.608 136.471 213.277C135.113 211.947 134.434 210.174 134.434 207.959V207.576C134.434 206.091 134.721 204.764 135.295 203.598C135.869 202.422 136.681 201.52 137.729 200.891C138.786 200.253 139.989 199.934 141.338 199.934C143.362 199.934 144.952 200.572 146.11 201.848C147.276 203.124 147.86 204.933 147.86 207.276V208.889H138.44C138.567 209.855 138.95 210.63 139.588 211.213C140.235 211.796 141.051 212.088 142.035 212.088C143.558 212.088 144.747 211.537 145.604 210.434L147.545 212.608C146.953 213.446 146.151 214.102 145.139 214.576C144.127 215.041 143.006 215.274 141.776 215.274ZM141.325 203.133C140.541 203.133 139.903 203.397 139.41 203.926C138.927 204.455 138.618 205.211 138.481 206.195H143.977V205.881C143.959 205.006 143.722 204.332 143.266 203.858C142.81 203.374 142.163 203.133 141.325 203.133Z" fill="#676767"/>
<path d="M446.04 215H441.938L433.954 201.902V215H429.852V195.094H433.954L441.952 208.219V195.094H446.04V215ZM457.094 215C456.912 214.645 456.78 214.203 456.698 213.674C455.741 214.74 454.497 215.274 452.965 215.274C451.516 215.274 450.313 214.854 449.356 214.016C448.408 213.177 447.934 212.12 447.934 210.844C447.934 209.276 448.513 208.073 449.67 207.234C450.837 206.396 452.519 205.972 454.715 205.963H456.534V205.115C456.534 204.432 456.356 203.885 456.001 203.475C455.654 203.065 455.103 202.859 454.346 202.859C453.681 202.859 453.157 203.019 452.774 203.338C452.4 203.657 452.213 204.095 452.213 204.651H448.262C448.262 203.794 448.527 203.001 449.055 202.272C449.584 201.542 450.331 200.973 451.297 200.563C452.264 200.143 453.348 199.934 454.551 199.934C456.374 199.934 457.819 200.394 458.885 201.315C459.961 202.226 460.499 203.511 460.499 205.17V211.582C460.508 212.986 460.704 214.048 461.086 214.768V215H457.094ZM453.827 212.252C454.41 212.252 454.948 212.124 455.44 211.869C455.932 211.605 456.297 211.254 456.534 210.817V208.274H455.057C453.079 208.274 452.027 208.957 451.899 210.324L451.885 210.557C451.885 211.049 452.058 211.455 452.405 211.774C452.751 212.093 453.225 212.252 453.827 212.252ZM468.012 210.174L470.76 200.207H474.889L469.899 215H466.125L461.135 200.207H465.264L468.012 210.174ZM482.416 215.274C480.247 215.274 478.479 214.608 477.112 213.277C475.753 211.947 475.074 210.174 475.074 207.959V207.576C475.074 206.091 475.362 204.764 475.936 203.598C476.51 202.422 477.321 201.52 478.369 200.891C479.427 200.253 480.63 199.934 481.979 199.934C484.002 199.934 485.593 200.572 486.75 201.848C487.917 203.124 488.5 204.933 488.5 207.276V208.889H479.08C479.208 209.855 479.591 210.63 480.229 211.213C480.876 211.796 481.692 212.088 482.676 212.088C484.198 212.088 485.388 211.537 486.244 210.434L488.186 212.608C487.593 213.446 486.791 214.102 485.78 214.576C484.768 215.041 483.647 215.274 482.416 215.274ZM481.965 203.133C481.181 203.133 480.543 203.397 480.051 203.926C479.568 204.455 479.258 205.211 479.121 206.195H484.617V205.881C484.599 205.006 484.362 204.332 483.906 203.858C483.451 203.374 482.804 203.133 481.965 203.133ZM498.229 203.912C497.691 203.839 497.217 203.803 496.807 203.803C495.312 203.803 494.332 204.309 493.867 205.32V215H489.916V200.207H493.648L493.758 201.971C494.551 200.613 495.649 199.934 497.053 199.934C497.49 199.934 497.9 199.993 498.283 200.111L498.229 203.912Z" fill="#676767"/>
<path d="M23.2029 360V165.971C23.2029 165.971 18.8034 133.021 51.0394 133.021H162.118C162.118 133.021 193.001 131.013 193.001 165.971V360" stroke="#D5D5D5" stroke-width="3"/>
<path d="M201.202 360V165.971C201.202 165.971 196.802 133.021 229.04 133.021H340.117C340.117 133.021 371 131.013 371 165.971V360" stroke="#D5D5D5" stroke-width="3"/>
<path d="M379.202 360V165.971C379.202 165.971 374.802 133.021 407.038 133.021H518.117C518.117 133.021 549 131.013 549 165.971V360" stroke="#D5D5D5" stroke-width="3"/>
<path opacity="0.903" d="M535.5 357H35.5C15.8939 357 0 372.894 0 392.5C0 412.106 15.8939 428 35.5 428H535.5C555.106 428 571 412.106 571 392.5C571 372.894 555.106 357 535.5 357Z" fill="#5C6AFF"/>
<path d="M246.779 400.234H256.732V404H242.092V381.25H246.779V400.234ZM272.163 394.141H263.163V400.234H273.726V404H258.476V381.25H273.694V385.047H263.163V390.469H272.163V394.141ZM283.922 398.359L289.078 381.25H294.297L286.375 404H281.484L273.594 381.25H278.797L283.922 398.359ZM309.181 394.141H300.181V400.234H310.743V404H295.493V381.25H310.712V385.047H300.181V390.469H309.181V394.141ZM320.955 395.672H317.221V404H312.533V381.25H320.986C323.674 381.25 325.747 381.849 327.205 383.047C328.663 384.245 329.393 385.938 329.393 388.125C329.393 389.677 329.054 390.974 328.377 392.016C327.71 393.047 326.695 393.87 325.33 394.484L330.252 403.781V404H325.221L320.955 395.672ZM317.221 391.875H321.002C322.179 391.875 323.09 391.578 323.736 390.984C324.382 390.38 324.705 389.552 324.705 388.5C324.705 387.427 324.398 386.583 323.783 385.969C323.179 385.354 322.247 385.047 320.986 385.047H317.221V391.875Z" fill="white"/>
<path d="M272.682 7.58403C272.269 6.83959 271.577 6.28967 270.759 6.05526C269.94 5.82084 269.062 5.92111 268.318 6.33403C261.056 10.3724 254.889 16.1217 250.352 23.083C249.905 23.7965 249.755 24.6572 249.937 25.4796C250.118 26.302 250.615 27.0203 251.321 27.4795C252.027 27.9386 252.885 28.102 253.711 27.9343C254.536 27.7666 255.262 27.2813 255.733 26.583C259.698 20.4995 265.087 15.4752 271.433 11.946C272.177 11.5329 272.726 10.8414 272.96 10.0235C273.194 9.20562 273.094 8.32819 272.682 7.58403Z" fill="#747474"/>
<path d="M292.565 0C291.745 0.0410373 290.972 0.395666 290.406 0.990534C289.84 1.5854 289.525 2.375 289.525 3.196C289.525 4.017 289.84 4.8066 290.406 5.40147C290.972 5.99633 291.745 6.35096 292.565 6.392C300.928 6.38131 309.122 8.74833 316.19 13.217C323.259 17.6857 328.912 24.072 332.49 31.631C336.067 39.1901 337.422 47.6104 336.396 55.9102C335.371 64.21 332.006 72.0471 326.696 78.5077C321.386 84.9682 314.348 89.786 306.404 92.3993C298.46 95.0125 289.937 95.3134 281.828 93.267C273.719 91.2205 266.359 86.9111 260.607 80.8411C254.854 74.7711 250.946 67.1908 249.337 58.984L253.537 63.184C254.14 63.7691 254.948 64.0933 255.788 64.0866C256.628 64.0798 257.432 63.7426 258.025 63.1479C258.618 62.5532 258.953 61.7488 258.958 60.9089C258.962 60.069 258.636 59.2611 258.049 58.66L247.62 48.238C247.255 47.8769 246.809 47.608 246.32 47.4536C245.83 47.2993 245.311 47.2639 244.805 47.3504C244.299 47.4369 243.82 47.6429 243.41 47.9511C242.999 48.2594 242.668 48.6612 242.444 49.123L234.536 61.011C234.303 61.3601 234.142 61.7515 234.06 62.163C233.979 62.5745 233.98 62.998 234.062 63.4093C234.144 63.8207 234.307 64.2117 234.54 64.5602C234.774 64.9088 235.073 65.2079 235.422 65.4405C235.772 65.6731 236.163 65.8347 236.575 65.9161C236.986 65.9974 237.41 65.9969 237.821 65.9146C238.232 65.8323 238.623 65.6698 238.972 65.4363C239.32 65.2029 239.619 64.9031 239.852 64.554L242.988 59.839C244.771 69.2466 249.194 77.9526 255.741 84.9397C262.287 91.9269 270.688 96.9065 279.959 99.2968C289.231 101.687 298.992 101.389 308.101 98.4383C317.21 95.4872 325.291 90.0048 331.4 82.6316C337.508 75.2584 341.393 66.2989 342.598 56.8002C343.804 47.3014 342.282 37.6556 338.209 28.9899C334.137 20.3241 327.682 12.9964 319.599 7.86296C311.517 2.72949 302.14 0.00227593 292.565 0Z" fill="#747474"/>
<path d="M290.239 56.845H280.939V56.525C280.939 53.291 291.907 50.768 291.907 43.055C291.907 38.293 287.754 35.698 283.637 35.698C279.591 35.698 275.615 38.186 275.615 42.522C275.615 44.761 276.68 45.401 278.1 45.401C279.91 45.401 281.011 44.401 281.011 43.375C280.973 43.0159 281.015 42.6528 281.136 42.3122C281.256 41.9717 281.451 41.6623 281.706 41.4068C281.961 41.1512 282.27 40.9559 282.61 40.8352C282.951 40.7145 283.314 40.6714 283.673 40.709C284.021 40.6751 284.372 40.7156 284.703 40.8279C285.034 40.9403 285.338 41.1218 285.593 41.3605C285.848 41.5992 286.05 41.8895 286.185 42.2122C286.319 42.5349 286.383 42.8826 286.373 43.232C286.373 47.746 275.193 50.944 275.193 56.524V59.971C275.193 61.002 276.613 61.677 277.607 61.677H290.243C291.13 61.677 291.911 60.504 291.911 59.225C291.911 57.946 291.126 56.845 290.239 56.845Z" fill="#747474"/>
<path d="M309.045 51.087H307.519V48.599C307.519 47.426 306.135 46.929 304.751 46.929C303.367 46.929 301.983 47.429 301.983 48.599V51.087H298.93L305.212 38.47C305.316 38.2593 305.376 38.0296 305.389 37.795C305.389 36.515 303.579 35.695 302.621 35.695C302.14 35.6841 301.667 35.8126 301.257 36.0649C300.848 36.3173 300.52 36.6826 300.314 37.117L292.114 53.217C291.934 53.5437 291.836 53.9098 291.83 54.283C291.809 54.534 291.841 54.7868 291.925 55.0243C292.009 55.2618 292.143 55.4786 292.318 55.6602C292.493 55.8418 292.704 55.9841 292.938 56.0776C293.172 56.171 293.423 56.2134 293.675 56.202H301.981V59.969C301.981 61.106 303.365 61.675 304.749 61.675C306.133 61.675 307.517 61.106 307.517 59.969V56.202H309.043C309.895 56.202 310.743 54.922 310.743 53.643C310.743 52.364 310.181 51.087 309.045 51.087Z" fill="#747474"/>
<path d="M463 51H356" stroke="#D5D5D5" stroke-width="2" stroke-linecap="round"/>
<path d="M220 51H113" stroke="#D5D5D5" stroke-width="2" stroke-linecap="round"/>
<path d="M542.625 55.008C542.332 54.9403 542.027 54.9385 541.733 55.0029C541.439 55.0672 541.163 55.196 540.925 55.38C538.971 57.0495 536.736 58.3591 534.325 59.248C531.934 60.1552 529.396 60.6093 526.839 60.587C523.971 60.5857 521.132 60.0186 518.484 58.9182C515.836 57.8178 513.431 56.2057 511.406 54.1743C509.382 52.1429 507.779 49.7321 506.688 47.08C505.597 44.4279 505.04 41.5867 505.049 38.719C505.057 36.2661 505.457 33.8303 506.235 31.504C507.017 29.1698 508.223 27 509.793 25.104C509.95 24.9087 510.067 24.6844 510.136 24.4439C510.206 24.2034 510.228 23.9515 510.2 23.7026C510.172 23.4537 510.095 23.2128 509.974 22.9937C509.853 22.7746 509.689 22.5817 509.493 22.426C509.254 22.2416 508.978 22.1125 508.683 22.0482C508.389 21.9838 508.084 21.9858 507.79 22.054C501.546 23.7809 496.032 27.4889 492.078 32.62C487.737 38.2903 485.599 45.343 486.063 52.4695C486.527 59.5959 489.56 66.3122 494.6 71.372C498.291 75.0687 502.902 77.7124 507.957 79.0295C513.011 80.3466 518.326 80.2893 523.352 78.8635C528.377 77.4378 532.93 74.6953 536.54 70.9199C540.15 67.1444 542.686 62.473 543.885 57.389C543.98 57.151 544.023 56.8951 544.009 56.6391C543.996 56.383 543.927 56.133 543.807 55.9064C543.687 55.6798 543.519 55.482 543.315 55.3269C543.111 55.1717 542.875 55.0629 542.625 55.008ZM531.285 70.554C526.393 74.4409 520.238 76.3855 514.001 76.015C507.764 75.6444 501.883 72.9848 497.485 68.546C492.693 63.7514 490 57.25 490 50.471C489.972 44.8467 491.825 39.3746 495.265 34.925C497.546 31.9467 500.456 29.5084 503.788 27.784C503.397 28.6083 503.051 29.4528 502.75 30.314C501.791 33.037 501.315 35.9063 501.342 38.793C501.334 42.1574 501.989 45.4904 503.27 48.6015C504.551 51.7125 506.433 54.5405 508.808 56.9237C511.183 59.307 514.004 61.1987 517.11 62.4908C520.217 63.7829 523.548 64.45 526.912 64.454C529.923 64.4744 532.912 63.9451 535.732 62.892C536.696 62.52 537.659 62.148 538.548 61.702C536.787 65.1372 534.31 68.1556 531.285 70.554Z" fill="#898989"/>
<path d="M75.528 38.472C72.2063 35.1423 67.7031 33.2606 63 33.237C60.6678 33.2274 58.3574 33.6858 56.2055 34.585C54.0536 35.4842 52.104 36.8059 50.472 38.472C48.0008 40.9559 46.3193 44.1152 45.6393 47.5524C44.9592 50.9896 45.3108 54.5511 46.65 57.7889C47.9891 61.0268 50.2559 63.7962 53.1651 65.7489C56.0744 67.7016 59.4962 68.7502 63 68.763C65.3322 68.7725 67.6426 68.3142 69.7945 67.415C71.9464 66.5158 73.896 65.194 75.528 63.528C78.8576 60.2063 80.7393 55.7031 80.763 51C80.7726 48.6678 80.3142 46.3574 79.415 44.2055C78.5158 42.0536 77.194 40.104 75.528 38.472ZM72.162 60.162C70.0382 62.33 67.2272 63.6928 64.2096 64.0175C61.1921 64.3422 58.1555 63.6085 55.6191 61.9419C53.0827 60.2753 51.2041 57.7793 50.3045 54.8808C49.4048 51.9823 49.54 48.8612 50.687 46.0514C51.834 43.2415 53.9216 40.9174 56.5926 39.4765C59.2637 38.0355 62.3523 37.5673 65.3305 38.1517C68.3086 38.7362 70.9912 40.3371 72.9195 42.6807C74.8478 45.0243 75.9021 47.965 75.902 51C75.9193 54.429 74.5741 57.7246 72.162 60.162Z" fill="#898989"/>
<path d="M95.57 48.569H88.37C87.7253 48.569 87.1069 48.8251 86.651 49.281C86.1951 49.7369 85.939 50.3552 85.939 51C85.939 51.6447 86.1951 52.263 86.651 52.7189C87.1069 53.1748 87.7253 53.431 88.37 53.431H95.57C96.2147 53.431 96.8331 53.1748 97.289 52.7189C97.7449 52.263 98.001 51.6447 98.001 51C98.001 50.3552 97.7449 49.7369 97.289 49.281C96.8331 48.8251 96.2147 48.569 95.57 48.569Z" fill="#898989"/>
<path d="M63 73.9399C62.3588 73.9512 61.747 74.211 61.2935 74.6645C60.84 75.1179 60.5803 75.7297 60.569 76.3709V83.5709C60.569 84.2157 60.8251 84.834 61.281 85.2899C61.7369 85.7458 62.3553 86.0019 63 86.0019C63.6447 86.0019 64.2631 85.7458 64.719 85.2899C65.1749 84.834 65.431 84.2157 65.431 83.5709V76.3709C65.4197 75.7297 65.1599 75.1179 64.7065 74.6645C64.253 74.211 63.6412 73.9512 63 73.9399Z" fill="#898989"/>
<path d="M87.623 72.257L82.481 67.115C82.26 66.8939 81.9976 66.7186 81.7088 66.599C81.4201 66.4794 81.1106 66.4178 80.798 66.4178C80.4854 66.4178 80.1759 66.4794 79.8872 66.599C79.5984 66.7186 79.336 66.8939 79.115 67.115C78.894 67.336 78.7187 67.5984 78.599 67.8871C78.4794 68.1759 78.4179 68.4854 78.4179 68.798C78.4179 69.1105 78.4794 69.42 78.599 69.7088C78.7187 69.9976 78.894 70.26 79.115 70.481L84.257 75.623C84.7033 76.0693 85.3088 76.3201 85.94 76.3201C86.5712 76.3201 87.1766 76.0693 87.623 75.623C88.0694 75.1766 88.3201 74.5712 88.3201 73.94C88.3201 73.3087 88.0694 72.7033 87.623 72.257Z" fill="#898989"/>
<path d="M63 16C62.3588 16.0113 61.747 16.2711 61.2935 16.7245C60.84 17.178 60.5803 17.7898 60.569 18.431V25.631C60.569 26.2757 60.8251 26.8941 61.281 27.35C61.7369 27.8059 62.3553 28.062 63 28.062C63.6447 28.062 64.2631 27.8059 64.719 27.35C65.1749 26.8941 65.431 26.2757 65.431 25.631V18.431C65.4197 17.7898 65.1599 17.178 64.7065 16.7245C64.253 16.2711 63.6412 16.0113 63 16V16Z" fill="#898989"/>
<path d="M87.716 26.376C87.4957 26.1538 87.2335 25.9774 86.9446 25.857C86.6558 25.7367 86.3459 25.6747 86.033 25.6747C85.7201 25.6747 85.4102 25.7367 85.1214 25.857C84.8325 25.9774 84.5703 26.1538 84.35 26.376L79.207 31.519C78.7606 31.9654 78.5099 32.5708 78.5099 33.202C78.5099 33.8333 78.7606 34.4387 79.207 34.885C79.6534 35.3314 80.2588 35.5821 80.89 35.5821C81.5212 35.5821 82.1266 35.3314 82.573 34.885L87.715 29.743C87.9374 29.5227 88.114 29.2606 88.2346 28.9717C88.3551 28.6827 88.4173 28.3728 88.4174 28.0597C88.4175 27.7467 88.3555 27.4367 88.2351 27.1477C88.1148 26.8587 87.9383 26.5964 87.716 26.376Z" fill="#898989"/>
<path d="M37.63 48.569H30.43C29.789 48.5805 29.1774 48.8404 28.7242 49.2938C28.2709 49.7473 28.0113 50.3589 28 51C27.9977 51.3198 28.0591 51.637 28.1804 51.9329C28.3018 52.2289 28.4808 52.4978 28.707 52.724C28.9332 52.9502 29.2021 53.1292 29.498 53.2505C29.794 53.3719 30.1111 53.4332 30.431 53.431H37.631C38.2757 53.431 38.8941 53.1748 39.35 52.7189C39.8059 52.263 40.062 51.6447 40.062 51C40.062 50.3552 39.8059 49.7369 39.35 49.281C38.8941 48.8251 38.2757 48.569 37.631 48.569H37.63Z" fill="#898989"/>
<path d="M46.792 67.114C46.5717 66.8917 46.3096 66.7151 46.0207 66.5947C45.7319 66.4742 45.422 66.4122 45.109 66.4122C44.796 66.4122 44.4861 66.4742 44.1973 66.5947C43.9084 66.7151 43.6463 66.8917 43.426 67.114L38.283 72.257C38.062 72.478 37.8867 72.7404 37.7671 73.0292C37.6474 73.3179 37.5859 73.6274 37.5859 73.94C37.5859 74.5712 37.8366 75.1766 38.283 75.623C38.7294 76.0694 39.3347 76.3201 39.966 76.3201C40.5972 76.3201 41.2026 76.0694 41.649 75.623L46.791 70.481C47.0134 70.2607 47.19 69.9985 47.3106 69.7096C47.4311 69.4207 47.4933 69.1108 47.4933 68.7977C47.4934 68.4846 47.4315 68.1747 47.3111 67.8857C47.1907 67.5967 47.0143 67.3344 46.792 67.114Z" fill="#898989"/>
<path d="M46.792 31.519L41.65 26.376C41.2035 25.9295 40.5979 25.6787 39.9665 25.6787C39.3351 25.6787 38.7295 25.9295 38.283 26.376C37.8365 26.8225 37.5857 27.4281 37.5857 28.0595C37.5857 28.691 37.8365 29.2965 38.283 29.743L43.425 34.885C43.8714 35.3314 44.4767 35.5822 45.108 35.5822C45.7392 35.5822 46.3446 35.3314 46.791 34.885C47.2374 34.4387 47.4881 33.8333 47.4881 33.202C47.4881 32.5708 47.2374 31.9654 46.791 31.519H46.792Z" fill="#898989"/>
<path d="M323 263L321.46 268.338" stroke="#D5D5D5" stroke-width="2" stroke-linecap="round"/>
<path d="M328.647 269.219L323.405 270.162" stroke="#D5D5D5" stroke-width="2" stroke-linecap="round"/>
<path d="M197.625 298H165.375C163.94 298.012 162.567 298.594 161.56 299.616C160.552 300.639 159.991 302.019 160 303.455V332.545C159.991 333.981 160.552 335.361 161.56 336.384C162.567 337.406 163.94 337.988 165.375 338H197.625C199.061 337.988 200.433 337.406 201.44 336.384C202.448 335.361 203.009 333.981 203 332.545V303.455C203.009 302.019 202.448 300.639 201.44 299.616C200.433 298.594 199.061 298.012 197.625 298ZM199.417 332.545C199.42 333.024 199.233 333.484 198.897 333.825C198.561 334.165 198.104 334.359 197.625 334.363H165.375C164.897 334.359 164.439 334.165 164.103 333.825C163.767 333.484 163.58 333.024 163.583 332.545V307.091H199.417V332.545Z" fill="#676767"/>
<path d="M185.071 327.049H183.721C183.363 327.049 183.02 326.906 182.767 326.653C182.514 326.4 182.371 326.057 182.371 325.699V317.599C182.371 317.241 182.514 316.898 182.767 316.645C183.02 316.392 183.363 316.249 183.721 316.249H185.071C186.503 316.249 187.877 316.818 188.889 317.831C189.902 318.843 190.471 320.217 190.471 321.649C190.471 323.081 189.902 324.455 188.889 325.467C187.877 326.48 186.503 327.049 185.071 327.049ZM185.071 318.949V324.349C185.787 324.349 186.474 324.065 186.98 323.558C187.487 323.052 187.771 322.365 187.771 321.649C187.771 320.933 187.487 320.246 186.98 319.74C186.474 319.233 185.787 318.949 185.071 318.949Z" fill="#676767"/>
<path d="M178.381 327.049C178.023 327.049 177.68 326.906 177.427 326.653C177.174 326.4 177.031 326.057 177.031 325.699V319.849C177.031 319.61 176.936 319.381 176.767 319.213C176.599 319.044 176.37 318.949 176.131 318.949C175.892 318.949 175.663 319.044 175.495 319.213C175.326 319.381 175.231 319.61 175.231 319.849V325.7C175.231 326.058 175.089 326.401 174.836 326.655C174.583 326.908 174.239 327.05 173.881 327.05C173.523 327.05 173.18 326.908 172.927 326.655C172.673 326.401 172.531 326.058 172.531 325.7V319.849C172.531 318.894 172.91 317.979 173.586 317.303C174.261 316.628 175.176 316.249 176.131 316.249C177.086 316.249 178.002 316.628 178.677 317.303C179.352 317.979 179.731 318.894 179.731 319.849V325.7C179.731 326.058 179.588 326.401 179.335 326.654C179.082 326.907 178.739 327.049 178.381 327.049Z" fill="#676767"/>
<path d="M178.381 324.353H173.88C173.703 324.353 173.527 324.318 173.363 324.25C173.2 324.182 173.051 324.083 172.925 323.958C172.8 323.832 172.701 323.683 172.633 323.52C172.565 323.356 172.53 323.18 172.53 323.003C172.53 322.826 172.565 322.65 172.633 322.486C172.701 322.323 172.8 322.174 172.925 322.048C173.051 321.923 173.2 321.824 173.363 321.756C173.527 321.688 173.703 321.653 173.88 321.653H178.38C178.738 321.653 179.082 321.795 179.335 322.048C179.588 322.302 179.73 322.645 179.73 323.003C179.73 323.361 179.588 323.704 179.335 323.958C179.082 324.211 178.738 324.353 178.38 324.353H178.381Z" fill="#676767"/>
<path d="M510.625 298H478.375C476.94 298.012 475.567 298.594 474.56 299.616C473.552 300.639 472.991 302.019 473 303.455V332.545C472.991 333.981 473.552 335.361 474.56 336.384C475.567 337.406 476.94 337.988 478.375 338H510.625C512.061 337.988 513.433 337.406 514.44 336.384C515.448 335.361 516.009 333.981 516 332.545V303.455C516.009 302.019 515.448 300.639 514.44 299.616C513.433 298.594 512.061 298.012 510.625 298ZM512.417 332.545C512.42 333.024 512.233 333.484 511.897 333.825C511.561 334.165 511.104 334.359 510.625 334.363H478.375C477.897 334.359 477.439 334.165 477.103 333.825C476.767 333.484 476.58 333.024 476.583 332.545V307.091H512.417V332.545Z" fill="#676767"/>
<path d="M498.071 327.049H496.721C496.363 327.049 496.02 326.906 495.767 326.653C495.514 326.4 495.371 326.057 495.371 325.699V317.599C495.371 317.241 495.514 316.898 495.767 316.645C496.02 316.392 496.363 316.249 496.721 316.249H498.071C499.503 316.249 500.877 316.818 501.889 317.831C502.902 318.843 503.471 320.217 503.471 321.649C503.471 323.081 502.902 324.455 501.889 325.467C500.877 326.48 499.503 327.049 498.071 327.049ZM498.071 318.949V324.349C498.787 324.349 499.474 324.065 499.98 323.558C500.487 323.052 500.771 322.365 500.771 321.649C500.771 320.933 500.487 320.246 499.98 319.74C499.474 319.233 498.787 318.949 498.071 318.949Z" fill="#676767"/>
<path d="M491.381 327.049C491.023 327.049 490.68 326.906 490.427 326.653C490.174 326.4 490.031 326.057 490.031 325.699V319.849C490.031 319.61 489.936 319.381 489.767 319.213C489.599 319.044 489.37 318.949 489.131 318.949C488.892 318.949 488.663 319.044 488.495 319.213C488.326 319.381 488.231 319.61 488.231 319.849V325.7C488.231 326.058 488.089 326.401 487.836 326.655C487.583 326.908 487.239 327.05 486.881 327.05C486.523 327.05 486.18 326.908 485.927 326.655C485.673 326.401 485.531 326.058 485.531 325.7V319.849C485.531 318.894 485.91 317.979 486.586 317.303C487.261 316.628 488.176 316.249 489.131 316.249C490.086 316.249 491.002 316.628 491.677 317.303C492.352 317.979 492.731 318.894 492.731 319.849V325.7C492.731 326.058 492.588 326.401 492.335 326.654C492.082 326.907 491.739 327.049 491.381 327.049Z" fill="#676767"/>
<path d="M491.381 324.353H486.88C486.703 324.353 486.527 324.318 486.363 324.25C486.2 324.182 486.051 324.083 485.926 323.958C485.8 323.832 485.701 323.683 485.633 323.52C485.565 323.356 485.53 323.18 485.53 323.003C485.53 322.826 485.565 322.65 485.633 322.486C485.701 322.323 485.8 322.174 485.926 322.048C486.051 321.923 486.2 321.824 486.363 321.756C486.527 321.688 486.703 321.653 486.88 321.653H491.38C491.738 321.653 492.082 321.795 492.335 322.048C492.588 322.302 492.73 322.645 492.73 323.003C492.73 323.361 492.588 323.704 492.335 323.958C492.082 324.211 491.738 324.353 491.38 324.353H491.381Z" fill="#676767"/>
<path d="M100.625 298H68.3751C66.9395 298.012 65.5675 298.594 64.5599 299.616C63.5522 300.639 62.9913 302.019 63.0001 303.455V332.545C62.9913 333.981 63.5522 335.361 64.5599 336.384C65.5675 337.406 66.9395 337.988 68.3751 338H100.625C102.061 337.988 103.433 337.406 104.44 336.384C105.448 335.361 106.009 333.981 106 332.545V303.455C106.009 302.019 105.448 300.639 104.44 299.616C103.433 298.594 102.061 298.012 100.625 298ZM102.417 332.545C102.42 333.024 102.233 333.484 101.897 333.825C101.561 334.165 101.104 334.359 100.625 334.363H68.3751C67.8965 334.359 67.4391 334.165 67.1032 333.825C66.7672 333.484 66.5802 333.024 66.5831 332.545V307.091H102.417V332.545Z" fill="#676767"/>
<path d="M88.0711 327.049H86.7211C86.3631 327.049 86.0199 326.906 85.7668 326.653C85.5137 326.4 85.3714 326.057 85.3711 325.699V317.599C85.3714 317.241 85.5137 316.898 85.7668 316.645C86.0199 316.392 86.3631 316.249 86.7211 316.249H88.0711C89.5033 316.249 90.8768 316.818 91.8895 317.831C92.9022 318.843 93.4711 320.217 93.4711 321.649C93.4711 323.081 92.9022 324.455 91.8895 325.467C90.8768 326.48 89.5033 327.049 88.0711 327.049ZM88.0711 318.949V324.349C88.7872 324.349 89.4739 324.065 89.9803 323.558C90.4866 323.052 90.7711 322.365 90.7711 321.649C90.7711 320.933 90.4866 320.246 89.9803 319.74C89.4739 319.233 88.7872 318.949 88.0711 318.949Z" fill="#676767"/>
<path d="M81.3811 327.049C81.0231 327.049 80.6799 326.906 80.4268 326.653C80.1737 326.4 80.0314 326.057 80.0311 325.699V319.849C80.0311 319.61 79.9363 319.381 79.7675 319.213C79.5987 319.044 79.3698 318.949 79.1311 318.949C78.8924 318.949 78.6635 319.044 78.4947 319.213C78.3259 319.381 78.2311 319.61 78.2311 319.849V325.7C78.2311 326.058 78.0889 326.401 77.8357 326.655C77.5825 326.908 77.2391 327.05 76.8811 327.05C76.5231 327.05 76.1797 326.908 75.9265 326.655C75.6733 326.401 75.5311 326.058 75.5311 325.7V319.849C75.5311 318.894 75.9104 317.979 76.5855 317.303C77.2606 316.628 78.1763 316.249 79.1311 316.249C80.0859 316.249 81.0016 316.628 81.6767 317.303C82.3518 317.979 82.7311 318.894 82.7311 319.849V325.7C82.7306 326.058 82.5881 326.401 82.335 326.654C82.082 326.907 81.7389 327.049 81.3811 327.049Z" fill="#676767"/>
<path d="M81.3811 324.353H76.8801C76.7028 324.353 76.5273 324.318 76.3635 324.25C76.1997 324.182 76.0509 324.083 75.9255 323.958C75.8001 323.832 75.7007 323.683 75.6329 323.52C75.565 323.356 75.5301 323.18 75.5301 323.003C75.5301 322.826 75.565 322.65 75.6329 322.486C75.7007 322.323 75.8001 322.174 75.9255 322.048C76.0509 321.923 76.1997 321.824 76.3635 321.756C76.5273 321.688 76.7028 321.653 76.8801 321.653H81.3801C81.7381 321.653 82.0815 321.795 82.3347 322.048C82.5879 322.302 82.7301 322.645 82.7301 323.003C82.7301 323.361 82.5879 323.704 82.3347 323.958C82.0815 324.211 81.7381 324.353 81.3801 324.353H81.3811Z" fill="#676767"/>
<path d="M414.625 298H382.375C380.94 298.012 379.567 298.594 378.56 299.616C377.552 300.639 376.991 302.019 377 303.455V332.545C376.991 333.981 377.552 335.361 378.56 336.384C379.567 337.406 380.94 337.988 382.375 338H414.625C416.061 337.988 417.433 337.406 418.44 336.384C419.448 335.361 420.009 333.981 420 332.545V303.455C420.009 302.019 419.448 300.639 418.44 299.616C417.433 298.594 416.061 298.012 414.625 298ZM416.417 332.545C416.42 333.024 416.233 333.484 415.897 333.825C415.561 334.165 415.104 334.359 414.625 334.363H382.375C381.897 334.359 381.439 334.165 381.103 333.825C380.767 333.484 380.58 333.024 380.583 332.545V307.091H416.417V332.545Z" fill="#676767"/>
<path d="M402.071 327.049H400.721C400.363 327.049 400.02 326.906 399.767 326.653C399.514 326.4 399.371 326.057 399.371 325.699V317.599C399.371 317.241 399.514 316.898 399.767 316.645C400.02 316.392 400.363 316.249 400.721 316.249H402.071C403.503 316.249 404.877 316.818 405.889 317.831C406.902 318.843 407.471 320.217 407.471 321.649C407.471 323.081 406.902 324.455 405.889 325.467C404.877 326.48 403.503 327.049 402.071 327.049ZM402.071 318.949V324.349C402.787 324.349 403.474 324.065 403.98 323.558C404.487 323.052 404.771 322.365 404.771 321.649C404.771 320.933 404.487 320.246 403.98 319.74C403.474 319.233 402.787 318.949 402.071 318.949Z" fill="#676767"/>
<path d="M395.381 327.049C395.023 327.049 394.68 326.906 394.427 326.653C394.174 326.4 394.031 326.057 394.031 325.699V319.849C394.031 319.61 393.936 319.381 393.768 319.213C393.599 319.044 393.37 318.949 393.131 318.949C392.892 318.949 392.663 319.044 392.495 319.213C392.326 319.381 392.231 319.61 392.231 319.849V325.7C392.231 326.058 392.089 326.401 391.836 326.655C391.583 326.908 391.239 327.05 390.881 327.05C390.523 327.05 390.18 326.908 389.927 326.655C389.673 326.401 389.531 326.058 389.531 325.7V319.849C389.531 318.894 389.91 317.979 390.586 317.303C391.261 316.628 392.176 316.249 393.131 316.249C394.086 316.249 395.002 316.628 395.677 317.303C396.352 317.979 396.731 318.894 396.731 319.849V325.7C396.731 326.058 396.588 326.401 396.335 326.654C396.082 326.907 395.739 327.049 395.381 327.049Z" fill="#676767"/>
<path d="M395.381 324.353H390.88C390.703 324.353 390.527 324.318 390.363 324.25C390.2 324.182 390.051 324.083 389.926 323.958C389.8 323.832 389.701 323.683 389.633 323.52C389.565 323.356 389.53 323.18 389.53 323.003C389.53 322.826 389.565 322.65 389.633 322.486C389.701 322.323 389.8 322.174 389.926 322.048C390.051 321.923 390.2 321.824 390.363 321.756C390.527 321.688 390.703 321.653 390.88 321.653H395.38C395.738 321.653 396.082 321.795 396.335 322.048C396.588 322.302 396.73 322.645 396.73 323.003C396.73 323.361 396.588 323.704 396.335 323.958C396.082 324.211 395.738 324.353 395.38 324.353H395.381Z" fill="#676767"/>
<path d="M295.973 331.513H289.484V325.027H276.514V331.513H270.027C269.167 331.513 268.342 331.855 267.734 332.463C267.126 333.071 266.784 333.896 266.784 334.756C266.784 335.616 267.126 336.441 267.734 337.049C268.342 337.657 269.167 337.999 270.027 337.999H295.973C296.833 337.999 297.658 337.657 298.266 337.049C298.874 336.441 299.216 335.616 299.216 334.756C299.216 333.896 298.874 333.071 298.266 332.463C297.658 331.855 296.833 331.513 295.973 331.513Z" fill="#676767"/>
<path d="M316.312 273H249.688C248.18 273.003 246.735 273.604 245.669 274.67C244.603 275.737 244.003 277.182 244 278.69V319.337C244.003 320.845 244.603 322.29 245.669 323.357C246.735 324.423 248.18 325.024 249.688 325.027H316.312C317.82 325.024 319.265 324.423 320.331 323.357C321.397 322.29 321.997 320.845 322 319.337V278.69C321.997 277.182 321.397 275.737 320.331 274.67C319.265 273.604 317.82 273.003 316.312 273ZM315.5 318.524H250.5V279.5H315.5V318.524Z" fill="#676767"/>
<path d="M289.51 308.723H287.077C286.432 308.723 285.814 308.466 285.358 308.01C284.902 307.554 284.645 306.936 284.645 306.291V291.696C284.645 291.051 284.902 290.433 285.358 289.977C285.814 289.521 286.432 289.264 287.077 289.264H289.509C292.072 289.29 294.522 290.327 296.325 292.148C298.129 293.97 299.14 296.43 299.14 298.994C299.14 301.557 298.129 304.017 296.325 305.839C294.522 307.661 292.072 308.697 289.509 308.723H289.51ZM289.51 294.128V303.858C290.8 303.858 292.038 303.345 292.95 302.433C293.862 301.521 294.375 300.283 294.375 298.993C294.375 297.703 293.862 296.465 292.95 295.553C292.038 294.641 290.8 294.128 289.51 294.128Z" fill="#676767"/>
<path d="M277.301 308.723C276.656 308.723 276.038 308.466 275.582 308.01C275.126 307.554 274.869 306.936 274.869 306.291V295.75C274.874 295.534 274.836 295.319 274.757 295.117C274.678 294.916 274.56 294.732 274.409 294.577C274.257 294.422 274.077 294.299 273.878 294.215C273.678 294.131 273.464 294.088 273.248 294.088C273.031 294.088 272.817 294.131 272.617 294.215C272.418 294.299 272.238 294.422 272.086 294.577C271.935 294.732 271.817 294.916 271.738 295.117C271.659 295.319 271.621 295.534 271.626 295.75V306.291C271.626 306.936 271.37 307.555 270.914 308.011C270.457 308.467 269.839 308.724 269.194 308.724C268.548 308.724 267.93 308.467 267.473 308.011C267.017 307.555 266.761 306.936 266.761 306.291V295.75C266.761 294.03 267.444 292.38 268.661 291.163C269.877 289.947 271.527 289.264 273.248 289.264C274.968 289.264 276.618 289.947 277.834 291.163C279.051 292.38 279.734 294.03 279.734 295.75V306.291C279.734 306.936 279.477 307.555 279.021 308.011C278.565 308.467 277.946 308.723 277.301 308.723Z" fill="#676767"/>
<path d="M277.301 303.869H269.192C268.547 303.869 267.928 303.613 267.472 303.157C267.016 302.7 266.76 302.082 266.76 301.437C266.76 300.791 267.016 300.173 267.472 299.716C267.928 299.26 268.547 299.004 269.192 299.004H277.3C277.945 299.004 278.564 299.26 279.02 299.716C279.476 300.173 279.733 300.791 279.733 301.437C279.733 302.082 279.476 302.7 279.02 303.157C278.564 303.613 277.945 303.869 277.3 303.869H277.301Z" fill="#676767"/>
</svg>
