<svg xmlns="http://www.w3.org/2000/svg" width="212" height="197" fill="none" viewBox="0 0 212 197">
    <path fill="#fff" d="M0 0H1920V1187H0z" transform="translate(-268 -598)"/>
    <rect width="1437" height="469" x="-26.5" y="-167.5" fill="#fff" stroke="#D5D5D5" rx="34.5"/>
    <path fill="#898989" d="M63 95c0-3.314 2.686-6 6-6h33c3.314 0 6 2.686 6 6v82H63V95z"/>
    <path fill="#CDD1FF" d="M116 38c0-3.314 2.686-6 6-6h33c3.314 0 6 2.686 6 6v139h-45V38z"/>
    <path stroke="#D5D5D5" stroke-linecap="round" stroke-linejoin="round" stroke-width="2" d="M33 177L183 177M33 156L41 156M175 156L183 156M33 81L41 81M175 81L183 81M33 131L41 131M175 131L183 131M33 56L41 56M175 56L183 56M33 106L41 106M175 106L183 106M33 31L41 31M175 31L183 31M33 6L41 6M175 6L183 6"/>
    <path fill="#898989" d="M68.144 190.15c-1.32-.44-2.25-1.53-2.25-2.73v-.36h2.03v-.66h-4.92v.66h2.05v.36c0 1.26-.91 2.43-2.27 2.91l.43.64c1.06-.39 1.89-1.19 2.27-2.21.41.94 1.23 1.68 2.26 2.04l.4-.65zm-4.12 2.18h5.18v2.41h.82v-3.07h-6v.66zm5.18-6.56v5.43h.82v-5.43h-.82zm6.919 2.48v.67h1.8v3.43h.83v-6.57h-.83v2.47h-1.8zm.53 2.11c-1.3-.46-2.18-1.58-2.18-2.75v-.44h1.97v-.67h-4.79v.67h2v.45c0 1.27-.93 2.46-2.26 2.94l.43.64c1.05-.38 1.87-1.21 2.26-2.23.39.92 1.16 1.67 2.16 2.03l.41-.64zm-2.81 3.51v-2.1h-.83v2.77h5.99v-.67h-5.16zm12.016.23c-1.42 0-2.25-.35-2.25-.98s.83-.98 2.25-.98c1.4 0 2.23.35 2.23.98s-.83.98-2.23.98zm0-2.6c-1.92 0-3.08.58-3.08 1.62s1.16 1.62 3.08 1.62c1.9 0 3.06-.58 3.06-1.62s-1.16-1.62-3.06-1.62zm.41-1.3v-1.04h2.7v-.66h-5.33v-1.66h5.27v-.66h-6.09v2.98h2.63v1.04h-3.65v.66h8.12v-.66h-3.65zm4.759-3.46v.66h3.37c-.17 2.13-1.37 3.85-3.78 5l.44.67c2.98-1.46 4.17-3.74 4.17-6.33h-4.2zm6.01-.97v8.97h.82v-8.97h-.82zm2.539.7v.67h3.3c-.17 1.58-1.55 2.85-3.66 3.51l.33.65c2.58-.81 4.21-2.51 4.21-4.83h-4.18zm1.81 5.19h-.82v2.88h5.98v-.67h-5.16v-2.21zm4.77-3.16v-2.72h-.82v6.55h.82v-3.15h1.32v-.68h-1.32zM5.447 158h2.814v-.532H7.232v-4.606h-.49c-.28.168-.609.287-1.064.371v.406h.91v3.829H5.447V158zm3.442 1.33c.63-.266 1.022-.791 1.022-1.463 0-.469-.203-.756-.54-.756-.258 0-.482.175-.482.448 0 .294.224.448.469.448.028 0 .049 0 .077-.007 0 .413-.26.756-.7.952l.154.378zm3.02-1.239c.972 0 1.595-.889 1.595-2.674 0-1.778-.623-2.646-1.596-2.646-.98 0-1.603.861-1.603 2.646s.623 2.674 1.603 2.674zm0-.511c-.589 0-.98-.651-.98-2.163 0-1.498.391-2.135.98-2.135.58 0 .972.637.972 2.135 0 1.512-.392 2.163-.973 2.163zm3.532.511c.973 0 1.596-.889 1.596-2.674 0-1.778-.623-2.646-1.596-2.646-.98 0-1.603.861-1.603 2.646s.623 2.674 1.603 2.674zm0-.511c-.588 0-.98-.651-.98-2.163 0-1.498.392-2.135.98-2.135.58 0 .973.637.973 2.135 0 1.512-.392 2.163-.973 2.163zm3.533.511c.973 0 1.596-.889 1.596-2.674 0-1.778-.623-2.646-1.596-2.646-.98 0-1.603.861-1.603 2.646s.623 2.674 1.603 2.674zm0-.511c-.588 0-.98-.651-.98-2.163 0-1.498.392-2.135.98-2.135.58 0 .973.637.973 2.135 0 1.512-.392 2.163-.973 2.163zm4.54-2.331H21.75v-1.988h1.765v1.988zm.56-2.45H21.19v2.905h2.884v-2.905zm-1.603 3.605h-.573v1.974h4.186v-.469H22.47v-1.505zm3.332-2.254v-1.918h-.573v4.599h.573v-2.198h.924v-.483h-.924zM189.616 158h2.814v-.532h-1.029v-4.606h-.49c-.28.168-.609.287-1.064.371v.406h.91v3.829h-1.141V158zm4.863.091c.973 0 1.596-.889 1.596-2.674 0-1.778-.623-2.646-1.596-2.646-.98 0-1.603.861-1.603 2.646s.623 2.674 1.603 2.674zm0-.511c-.588 0-.98-.651-.98-2.163 0-1.498.392-2.135.98-2.135.581 0 .973.637.973 2.135 0 1.512-.392 2.163-.973 2.163zm3.533.511c.973 0 1.596-.889 1.596-2.674 0-1.778-.623-2.646-1.596-2.646-.98 0-1.603.861-1.603 2.646s.623 2.674 1.603 2.674zm0-.511c-.588 0-.98-.651-.98-2.163 0-1.498.392-2.135.98-2.135.581 0 .973.637.973 2.135 0 1.512-.392 2.163-.973 2.163zm3.021-1.568c.707 0 1.169-.595 1.169-1.631 0-1.029-.462-1.61-1.169-1.61-.7 0-1.162.581-1.162 1.61 0 1.036.462 1.631 1.162 1.631zm0-.399c-.399 0-.679-.413-.679-1.232s.28-1.218.679-1.218c.406 0 .686.399.686 1.218s-.28 1.232-.686 1.232zm.154 2.478h.427l2.835-5.32h-.434l-2.828 5.32zm3.423 0c.7 0 1.162-.588 1.162-1.624 0-1.029-.462-1.61-1.162-1.61s-1.169.581-1.169 1.61c0 1.036.469 1.624 1.169 1.624zm0-.392c-.406 0-.679-.413-.679-1.232s.273-1.218.679-1.218c.399 0 .679.399.679 1.218s-.28 1.232-.679 1.232zM6.658 84.091c.868 0 1.68-.637 1.68-1.764s-.693-1.631-1.547-1.631c-.308 0-.532.077-.763.203l.126-1.484h1.939v-.553H5.594l-.161 2.408.343.21c.294-.196.511-.301.854-.301.644 0 1.064.434 1.064 1.169 0 .749-.49 1.211-1.092 1.211-.595 0-.966-.273-1.26-.567l-.315.42c.343.343.833.679 1.631.679zm2.23 1.239c.63-.266 1.023-.791 1.023-1.463 0-.469-.203-.756-.54-.756-.258 0-.482.175-.482.448 0 .294.224.448.469.448.028 0 .049 0 .077-.007 0 .413-.26.756-.7.952l.154.378zm3.02-1.239c.973 0 1.596-.889 1.596-2.674 0-1.778-.623-2.646-1.596-2.646-.98 0-1.603.861-1.603 2.646s.623 2.674 1.603 2.674zm0-.511c-.588 0-.98-.651-.98-2.163 0-1.498.392-2.135.98-2.135.581 0 .973.637.973 2.135 0 1.512-.392 2.163-.973 2.163zm3.533.511c.973 0 1.596-.889 1.596-2.674 0-1.778-.623-2.646-1.596-2.646-.98 0-1.603.861-1.603 2.646s.623 2.674 1.603 2.674zm0-.511c-.588 0-.98-.651-.98-2.163 0-1.498.392-2.135.98-2.135.58 0 .973.637.973 2.135 0 1.512-.392 2.163-.973 2.163zm3.533.511c.973 0 1.596-.889 1.596-2.674 0-1.778-.623-2.646-1.596-2.646-.98 0-1.603.861-1.603 2.646s.623 2.674 1.603 2.674zm0-.511c-.588 0-.98-.651-.98-2.163 0-1.498.392-2.135.98-2.135.58 0 .973.637.973 2.135 0 1.512-.392 2.163-.973 2.163zm4.54-2.331H21.75v-1.988h1.765v1.988zm.56-2.45H21.19v2.905h2.884v-2.905zm-1.603 3.605h-.573v1.974h4.186v-.469H22.47v-1.505zm3.332-2.254v-1.918h-.573v4.599h.573v-2.198h.924v-.483h-.924zM190.827 84.091c.868 0 1.68-.637 1.68-1.764s-.693-1.631-1.547-1.631c-.308 0-.532.077-.763.203l.126-1.484h1.939v-.553h-2.499l-.161 2.408.343.21c.294-.196.511-.301.854-.301.644 0 1.064.434 1.064 1.169 0 .749-.49 1.211-1.092 1.211-.595 0-.966-.273-1.26-.567l-.315.42c.343.343.833.679 1.631.679zm3.652 0c.973 0 1.596-.889 1.596-2.674 0-1.778-.623-2.646-1.596-2.646-.98 0-1.603.861-1.603 2.646s.623 2.674 1.603 2.674zm0-.511c-.588 0-.98-.651-.98-2.163 0-1.498.392-2.135.98-2.135.581 0 .973.637.973 2.135 0 1.512-.392 2.163-.973 2.163zm3.533.511c.973 0 1.596-.889 1.596-2.674 0-1.778-.623-2.646-1.596-2.646-.98 0-1.603.861-1.603 2.646s.623 2.674 1.603 2.674zm0-.511c-.588 0-.98-.651-.98-2.163 0-1.498.392-2.135.98-2.135.581 0 .973.637.973 2.135 0 1.512-.392 2.163-.973 2.163zm3.021-1.568c.707 0 1.169-.595 1.169-1.631 0-1.029-.462-1.61-1.169-1.61-.7 0-1.162.581-1.162 1.61 0 1.036.462 1.631 1.162 1.631zm0-.399c-.399 0-.679-.413-.679-1.232s.28-1.218.679-1.218c.406 0 .686.399.686 1.218s-.28 1.232-.686 1.232zm.154 2.478h.427l2.835-5.32h-.434l-2.828 5.32zm3.423 0c.7 0 1.162-.588 1.162-1.624 0-1.029-.462-1.61-1.162-1.61s-1.169.581-1.169 1.61c0 1.036.469 1.624 1.169 1.624zm0-.392c-.406 0-.679-.413-.679-1.232s.273-1.218.679-1.218c.399 0 .679.399.679 1.218s-.28 1.232-.679 1.232zM1.914 8h2.814v-.532H3.7V2.862h-.49c-.28.168-.609.287-1.064.371v.406h.91v3.829h-1.14V8zm4.863.091c.973 0 1.596-.889 1.596-2.674 0-1.778-.623-2.646-1.596-2.646-.98 0-1.603.861-1.603 2.646s.623 2.674 1.603 2.674zm0-.511c-.588 0-.98-.651-.98-2.163 0-1.498.392-2.135.98-2.135.581 0 .973.637.973 2.135 0 1.512-.392 2.163-.973 2.163zM8.89 9.33c.63-.266 1.022-.791 1.022-1.463 0-.469-.203-.756-.54-.756-.258 0-.482.175-.482.448 0 .294.224.448.469.448.028 0 .049 0 .077-.007 0 .413-.26.756-.7.952l.154.378zm3.02-1.239c.972 0 1.595-.889 1.595-2.674 0-1.778-.623-2.646-1.596-2.646-.98 0-1.603.861-1.603 2.646s.623 2.674 1.603 2.674zm0-.511c-.589 0-.98-.651-.98-2.163 0-1.498.391-2.135.98-2.135.58 0 .972.637.972 2.135 0 1.512-.392 2.163-.973 2.163zm3.532.511c.973 0 1.596-.889 1.596-2.674 0-1.778-.623-2.646-1.596-2.646-.98 0-1.603.861-1.603 2.646s.623 2.674 1.603 2.674zm0-.511c-.588 0-.98-.651-.98-2.163 0-1.498.392-2.135.98-2.135.58 0 .973.637.973 2.135 0 1.512-.392 2.163-.973 2.163zm3.533.511c.973 0 1.596-.889 1.596-2.674 0-1.778-.623-2.646-1.596-2.646-.98 0-1.603.861-1.603 2.646s.623 2.674 1.603 2.674zm0-.511c-.588 0-.98-.651-.98-2.163 0-1.498.392-2.135.98-2.135.58 0 .973.637.973 2.135 0 1.512-.392 2.163-.973 2.163zm4.54-2.331H21.75V3.261h1.765v1.988zm.56-2.45H21.19v2.905h2.884V2.799zm-1.603 3.605h-.573v1.974h4.186v-.469H22.47V6.404zm3.332-2.254V2.232h-.573v4.599h.573V4.633h.924V4.15h-.924zM189.616 8h2.814v-.532h-1.029V2.862h-.49c-.28.168-.609.287-1.064.371v.406h.91v3.829h-1.141V8zm3.442 1.33c.63-.266 1.022-.791 1.022-1.463 0-.469-.203-.756-.539-.756-.259 0-.483.175-.483.448 0 .294.224.448.469.448.028 0 .049 0 .077-.007 0 .413-.259.756-.7.952l.154.378zm3.019-1.239c.973 0 1.596-.889 1.596-2.674 0-1.778-.623-2.646-1.596-2.646-.98 0-1.603.861-1.603 2.646s.623 2.674 1.603 2.674zm0-.511c-.588 0-.98-.651-.98-2.163 0-1.498.392-2.135.98-2.135.581 0 .973.637.973 2.135 0 1.512-.392 2.163-.973 2.163zm3.533.511c.973 0 1.596-.889 1.596-2.674 0-1.778-.623-2.646-1.596-2.646-.98 0-1.603.861-1.603 2.646s.623 2.674 1.603 2.674zm0-.511c-.588 0-.98-.651-.98-2.163 0-1.498.392-2.135.98-2.135.581 0 .973.637.973 2.135 0 1.512-.392 2.163-.973 2.163zm3.533.511c.973 0 1.596-.889 1.596-2.674 0-1.778-.623-2.646-1.596-2.646-.98 0-1.603.861-1.603 2.646s.623 2.674 1.603 2.674zm0-.511c-.588 0-.98-.651-.98-2.163 0-1.498.392-2.135.98-2.135.581 0 .973.637.973 2.135 0 1.512-.392 2.163-.973 2.163zm3.021-1.568c.707 0 1.169-.595 1.169-1.631 0-1.029-.462-1.61-1.169-1.61-.7 0-1.162.581-1.162 1.61 0 1.036.462 1.631 1.162 1.631zm0-.399c-.399 0-.679-.413-.679-1.232s.28-1.218.679-1.218c.406 0 .686.399.686 1.218s-.28 1.232-.686 1.232zm.154 2.478h.427l2.835-5.32h-.434l-2.828 5.32zm3.423 0c.7 0 1.162-.588 1.162-1.624 0-1.029-.462-1.61-1.162-1.61s-1.169.581-1.169 1.61c0 1.036.469 1.624 1.169 1.624zm0-.392c-.406 0-.679-.413-.679-1.232s.273-1.218.679-1.218c.399 0 .679.399.679 1.218s-.28 1.232-.679 1.232zM121.622 191.06c1.35-.29 2.76-1.18 3.33-2.42.57 1.23 1.99 2.11 3.36 2.38l.33-.66c-1.56-.25-3.27-1.48-3.27-2.91v-.19h2.97v-.67h-6.79v.67h2.97v.19c0 1.43-1.7 2.68-3.25 2.94l.35.67zm3.74 1.85v-2.17h-.82v2.17h-3.66v.68h8.14v-.68h-3.66zm9.909-6.04h-2.31v-1.1h-.82v1.1h-2.32v.66h5.45v-.66zm-4.1 2.83c0-.63.56-1.03 1.38-1.03.81 0 1.37.4 1.37 1.03 0 .62-.56 1.02-1.37 1.02-.82 0-1.38-.4-1.38-1.02zm1.79 1.64c1.06-.13 1.74-.75 1.74-1.64 0-1.01-.87-1.66-2.15-1.66-1.28 0-2.16.65-2.16 1.66 0 .9.69 1.52 1.75 1.65v.96c-.89.03-1.75.04-2.51.04l.12.69c1.65 0 3.81-.03 5.81-.36l-.06-.61c-.82.11-1.69.17-2.54.21v-.94zm3.11-5.57v8.97h.82v-8.97h-.82zm2.739.97v.66h3.37c-.17 2.13-1.37 3.85-3.78 5l.44.67c2.98-1.46 4.17-3.74 4.17-6.33h-4.2zm6.01-.97v8.97h.82v-8.97h-.82zm2.539.7v.67h3.3c-.17 1.58-1.55 2.85-3.66 3.51l.33.65c2.58-.81 4.21-2.51 4.21-4.83h-4.18zm1.81 5.19h-.82v2.88h5.98v-.67h-5.16v-2.21zm4.77-3.16v-2.72h-.82v6.55h.82v-3.15h1.32v-.68h-1.32z"/>
    <path stroke="#5C6AFF" d="M86 84.5c14-2.667 44.6-18.1 55-58.5"/>
    <circle cx="141.5" cy="24.5" r="2.5" fill="#5C6AFF"/>
    <circle cx="85.5" cy="84.5" r="2.5" fill="#5C6AFF"/>
</svg>
