<svg xmlns="http://www.w3.org/2000/svg" width="11" height="10" fill="none" viewBox="0 0 11 10">
    <path fill="#fff" d="M0 0H1920V1187H0z" transform="translate(-1037 -529)"/>
    <rect width="1437" height="469" x="-795.5" y="-98.5" fill="#fff" stroke="#D5D5D5" rx="34.5"/>
    <path fill="#898989" d="M-125.55-17.098c0-1.274.63-1.904 1.4-1.904.882 0 1.596.7 1.778 2.576-.476.798-1.134 1.12-1.708 1.12-.896 0-1.47-.574-1.47-1.792zm1.12 7.294c2.058 0 3.976-1.694 3.976-5.614 0-3.598-1.764-5.138-3.724-5.138-1.778 0-3.262 1.33-3.262 3.458 0 2.198 1.246 3.262 2.968 3.262.7 0 1.582-.42 2.128-1.12-.098 2.59-1.05 3.472-2.212 3.472-.616 0-1.246-.322-1.624-.742l-1.092 1.246c.616.63 1.554 1.176 2.842 1.176zm5.15 2.786c1.694-.56 2.646-1.806 2.646-3.444 0-1.274-.532-2.03-1.484-2.03-.728 0-1.33.476-1.33 1.218 0 .784.616 1.218 1.288 1.218h.126c.014.784-.588 1.512-1.68 1.918l.434 1.12zm6.989-8.05c.896 0 1.484.574 1.484 1.792 0 1.274-.644 1.918-1.414 1.918-.868 0-1.568-.728-1.764-2.618.476-.784 1.134-1.092 1.694-1.092zm.112 5.264c1.764 0 3.248-1.344 3.248-3.472 0-2.212-1.232-3.248-2.968-3.248-.672 0-1.568.42-2.128 1.12.084-2.604 1.064-3.5 2.254-3.5.602 0 1.232.336 1.596.756l1.092-1.232c-.63-.644-1.54-1.176-2.814-1.176-2.086 0-4.004 1.652-4.004 5.516 0 3.654 1.75 5.236 3.724 5.236zm4.268-.196h6.23v-1.666h-1.946v-8.708h-1.526c-.658.42-1.372.686-2.408.882v1.274h1.876v6.552h-2.226V-10zm10.708-5.068c.896 0 1.484.574 1.484 1.792 0 1.274-.644 1.918-1.414 1.918-.868 0-1.568-.728-1.764-2.618.476-.784 1.134-1.092 1.694-1.092zm.112 5.264c1.764 0 3.248-1.344 3.248-3.472 0-2.212-1.232-3.248-2.968-3.248-.672 0-1.568.42-2.128 1.12.084-2.604 1.064-3.5 2.254-3.5.602 0 1.232.336 1.596.756l1.092-1.232c-.63-.644-1.54-1.176-2.814-1.176-2.086 0-4.004 1.652-4.004 5.516 0 3.654 1.75 5.236 3.724 5.236zm4.296 2.786c1.694-.56 2.646-1.806 2.646-3.444 0-1.274-.532-2.03-1.484-2.03-.728 0-1.33.476-1.33 1.218 0 .784.616 1.218 1.288 1.218h.126c.014.784-.588 1.512-1.68 1.918l.434 1.12zm6.513-2.786c1.974 0 3.64-1.106 3.64-3.01 0-1.358-.896-2.226-2.058-2.548v-.07c1.092-.434 1.722-1.246 1.722-2.366 0-1.764-1.358-2.758-3.36-2.758-1.218 0-2.212.49-3.108 1.274l1.05 1.26c.616-.574 1.218-.91 1.96-.91.882 0 1.386.476 1.386 1.288 0 .924-.616 1.582-2.52 1.582v1.47c2.254 0 2.856.644 2.856 1.652 0 .938-.714 1.456-1.764 1.456-.938 0-1.694-.462-2.31-1.064l-.966 1.302c.728.826 1.834 1.442 3.472 1.442zm7.572 0c1.918 0 3.626-1.33 3.626-3.64 0-2.254-1.456-3.29-3.192-3.29-.476 0-.826.098-1.246.294l.196-2.198h3.766v-1.736h-5.544l-.28 5.04.938.616c.602-.392.938-.546 1.554-.546 1.05 0 1.75.672 1.75 1.876 0 1.218-.756 1.904-1.834 1.904-.966 0-1.694-.476-2.282-1.05l-.952 1.316c.77.77 1.862 1.414 3.5 1.414zm4.282-.196h6.944v-1.736h-2.24c-.49 0-1.176.056-1.694.112 1.89-1.848 3.444-3.864 3.444-5.74 0-1.932-1.302-3.192-3.262-3.192-1.414 0-2.338.546-3.29 1.568l1.12 1.12c.532-.574 1.148-1.064 1.904-1.064.994 0 1.554.63 1.554 1.68 0 1.596-1.666 3.542-4.48 6.062V-10zm14.124-4.2v1.26h2.422v1.022h1.849v-9.772h-1.849v7.49h-2.422zm-2.477-5.712c.853 0 1.456.336 1.456.966 0 .63-.602.952-1.456.952-.869 0-1.47-.322-1.47-.952 0-.63.602-.966 1.47-.966zm0 3.262c1.875 0 3.206-.924 3.206-2.296 0-1.372-1.33-2.31-3.206-2.31-1.89 0-3.206.938-3.206 2.31s1.316 2.296 3.205 2.296zm-.687 6.16v-1.764h1.779v-2.436c1.035-.084 2.072-.196 3.08-.364l-.127-1.316c-2.716.35-5.852.378-8.203.392l.237 1.47c.966 0 2.044-.014 3.178-.07v1.722h-1.791v3.836h9.561v-1.47h-7.714zM-98.433 4.54h-1.694c.322-1.806.322-3.122.322-4.326V-.948h-8.946V.536h7.14c0 1.106-.028 2.366-.35 4.004h-8.12v1.484h4.816v5.18h1.876v-5.18h4.956V4.54zm3.681 4.27h7.112V5.184h-8.974v1.428h7.126v.84H-96.6v3.654h9.282V9.678h-7.434V8.81zm6.902-5.964c.238-1.274.238-2.324.238-3.15v-.882h-8.862v1.47h7.042c-.014.714-.056 1.526-.266 2.562h-8.218v1.456h11.676V2.846h-1.61zm31.838-1.61h.952v5.46c-.308.028-.644.042-.952.042V1.236zm2.604 0h.826v-1.47h-5.866v1.47h.784V6.78h-1.008l.196 1.498c1.596 0 4.2-.042 6.202-.476l-.126-1.33c-.308.042-.658.07-1.008.112V1.236zm1.736 1.778h-1.232v1.61h1.232v5.992h1.722v-12.04h-1.722v4.438zm2.562-4.704v12.908h1.75V-1.69h-1.75zm11.577-.014v12.936h1.848V-1.704h-1.848zm-5.082.91c-1.947 0-3.389 1.764-3.389 4.592 0 2.842 1.442 4.62 3.389 4.62 1.946 0 3.388-1.778 3.388-4.62 0-2.828-1.443-4.592-3.389-4.592zm0 1.666c.952 0 1.61 1.022 1.61 2.926 0 1.918-.658 2.94-1.61 2.94-.953 0-1.61-1.022-1.61-2.94 0-1.904.657-2.926 1.61-2.926zm19.696 3.5c-2.912-.49-4.508-2.492-4.508-4.382v-.924H-29.4v.924c0 1.848-1.61 3.892-4.508 4.382l.784 1.554c2.24-.434 3.878-1.694 4.704-3.332.826 1.638 2.478 2.884 4.718 3.332l.784-1.554zm-11.27 3.766v1.498h11.676V8.138h-11.676zm20.523-5.964h-5.026V1.166h5.026v1.008zm1.834-3.528h-1.834V-.22h-5.026v-1.134h-1.834v4.97h8.694v-4.97zm1.484 7.266v-1.47H-22.01v1.47h4.886v1.092h-3.598V8.46h7.112v2.758h1.848V7.004h-3.514V5.912h4.928zm27.546-6.37h-1.806v8.582h.896c1.624 0 3.024-.056 4.564-.378l-.224-1.54c-1.19.224-2.268.308-3.43.336v-7zm4.298 2.828h-2.534v1.498h2.534v6.762h1.722V-1.48h-1.722v3.85zm2.73-4.074V11.19h1.75V-1.704h-1.75zm11.675 0v12.936h1.848V-1.704H35.9zm-5.082.91c-1.946 0-3.388 1.764-3.388 4.592 0 2.842 1.442 4.62 3.388 4.62s3.388-1.778 3.388-4.62c0-2.828-1.442-4.592-3.388-4.592zm0 1.666c.952 0 1.61 1.022 1.61 2.926 0 1.918-.658 2.94-1.61 2.94-.952 0-1.61-1.022-1.61-2.94 0-1.904.658-2.926 1.61-2.926zm13.27 5.852h-2.533V3.868h2.534v2.856zm4.13-8.428v4.536h-2.31V-.682h-1.82v3.108h-2.533V-.682h-1.834v8.876h6.188V4.316h2.31v6.916h1.848V-1.704H48.22zM10.876 0v10H7.227L3.65 4.966V10H0V0h3.649l3.578 5.237V0h3.65z"/>
</svg>
