<svg xmlns="http://www.w3.org/2000/svg" width="18" height="18" fill="none" viewBox="0 0 18 18">
    <g clip-path="url(#clip0)">
        <path fill="#fff" d="M560-2866h-1920v6874H560v-6874z"/>
        <path fill="#D5D5D5" d="M9.035 0C6.651 0 4.363.942 2.671 2.621.979 4.301.018 6.581 0 8.965c.017 2.391.974 4.68 2.665 6.37 1.69 1.69 3.979 2.648 6.37 2.665 2.387 0 4.676-.948 6.364-2.636 1.688-1.688 2.636-3.977 2.636-6.364s-.948-4.676-2.636-6.364C13.711.948 11.422 0 9.035 0zm1.055 13.781c-.008.274-.123.534-.32.725-.197.19-.46.297-.734.297-.275 0-.538-.106-.735-.297-.197-.191-.312-.451-.32-.725V8.438c-.004-.141.02-.282.07-.414.052-.131.129-.251.227-.353.098-.101.216-.182.346-.237.13-.055.27-.083.412-.083.14 0 .28.028.41.083.13.055.249.136.347.237.098.102.175.222.226.353.051.132.075.273.071.414v5.343zM9.035 5.273c-.209 0-.413-.062-.586-.178-.174-.116-.309-.28-.389-.473-.08-.193-.1-.406-.06-.61.041-.205.142-.393.29-.54.147-.148.335-.248.54-.289.205-.04.417-.02.61.06.192.08.357.216.473.39.115.173.177.377.177.586 0 .28-.112.547-.31.745-.197.198-.465.309-.745.309z"/>
    </g>
    <defs>
        <clipPath id="clip0">
            <path fill="#fff" d="M0 0H1920V6874H0z" transform="translate(-1360 -2866)"/>
        </clipPath>
    </defs>
</svg>
