<svg xmlns="http://www.w3.org/2000/svg" width="320" height="198" fill="none" viewBox="0 0 320 198">
    <path fill="#fff" d="M0 0H1920V1187H0z" transform="translate(-1111 -598)"/>
    <rect width="1437" height="469" x="-869.5" y="-167.5" fill="#fff" stroke="#D5D5D5" rx="34.5"/>
    <path fill="#898989" d="M62 95c0-3.314 2.686-6 6-6h33c3.314 0 6 2.686 6 6v82H62V95zM168 69c0-3.314 2.686-6 6-6h33c3.314 0 6 2.686 6 6v108h-45V69z"/>
    <path fill="#CDD1FF" d="M115 38c0-3.314 2.686-6 6-6h33c3.314 0 6 2.686 6 6v139h-45V38zM221 21c0-3.314 2.686-6 6-6h33c3.314 0 6 2.686 6 6v156h-45V21z"/>
    <path stroke="#D5D5D5" stroke-linecap="round" stroke-linejoin="round" stroke-width="2" d="M32 177L292 177M32 156L40 156M283 156L291 156M32 81L40 81M283 81L291 81M32 131L40 131M283 131L291 131M32 56L40 56M283 56L291 56M32 106L40 106M283 106L291 106M32 31L40 31M283 31L291 31M32 6L40 6M283 6L291 6"/>
    <path fill="#898989" d="M73.907 194h4.02v-.76h-1.47v-6.58h-.7c-.4.24-.87.41-1.52.53v.58h1.3v5.47h-1.63v.76zm5.497-3.87c1.39-.24 2.71-.99 3.26-2.05.54 1.06 1.87 1.81 3.26 2.05l.32-.65c-1.58-.23-3.13-1.26-3.13-2.44v-.05h2.81v-.66h-6.55v.66h2.83v.05c0 1.18-1.55 2.21-3.11 2.44l.31.65zm7.31.75h-8.1v.67h3.62v3.19h.82v-3.19h3.67l-.01-.67zm3.59-2.9h1.99v-.66h-1.99v-1.39h-.82v1.39h-2.02v.66h2.03v.7c0 1.55-.96 3.07-2.27 3.71l.46.62c1.02-.5 1.84-1.54 2.22-2.77.38 1.15 1.14 2.13 2.12 2.61l.46-.64c-1.29-.62-2.18-2.09-2.18-3.53v-.7zm5.38 1.48h-1.48v-3.69h-.82v8.97h.82v-4.6h1.48v-.68zM185.667 194.13c1.3 0 2.35-.78 2.35-2.09 0-1-.69-1.66-1.55-1.86v-.04c.77-.29 1.3-.88 1.3-1.77 0-1.16-.9-1.84-2.13-1.84-.85 0-1.5.37-2.05.88l.49.58c.41-.42.93-.71 1.52-.71.76 0 1.24.46 1.24 1.16 0 .79-.52 1.4-2.03 1.4v.7c1.69 0 2.28.59 2.28 1.46 0 .85-.62 1.37-1.49 1.37-.83 0-1.39-.39-1.82-.84l-.46.6c.48.52 1.2 1 2.35 1zm3.737-4c1.39-.24 2.71-.99 3.26-2.05.54 1.06 1.87 1.81 3.26 2.05l.32-.65c-1.58-.23-3.13-1.26-3.13-2.44v-.05h2.81v-.66h-6.55v.66h2.83v.05c0 1.18-1.55 2.21-3.11 2.44l.31.65zm7.31.75h-8.1v.67h3.62v3.19h.82v-3.19h3.67l-.01-.67zm3.589-2.9h1.99v-.66h-1.99v-1.39h-.82v1.39h-2.02v.66h2.03v.7c0 1.55-.96 3.07-2.27 3.71l.46.62c1.02-.5 1.84-1.54 2.22-2.77.38 1.15 1.14 2.13 2.12 2.61l.46-.64c-1.29-.62-2.18-2.09-2.18-3.53v-.7zm5.38 1.48h-1.48v-3.69h-.82v8.97h.82v-4.6h1.48v-.68zM4.447 158h2.814v-.532H6.232v-4.606h-.49c-.28.168-.609.287-1.064.371v.406h.91v3.829H4.447V158zm3.442 1.33c.63-.266 1.022-.791 1.022-1.463 0-.469-.203-.756-.54-.756-.258 0-.482.175-.482.448 0 .294.224.448.469.448.028 0 .049 0 .077-.007 0 .413-.26.756-.7.952l.154.378zm3.02-1.239c.972 0 1.595-.889 1.595-2.674 0-1.778-.623-2.646-1.596-2.646-.98 0-1.603.861-1.603 2.646s.623 2.674 1.603 2.674zm0-.511c-.589 0-.98-.651-.98-2.163 0-1.498.391-2.135.98-2.135.58 0 .972.637.972 2.135 0 1.512-.392 2.163-.973 2.163zm3.532.511c.973 0 1.596-.889 1.596-2.674 0-1.778-.623-2.646-1.596-2.646-.98 0-1.603.861-1.603 2.646s.623 2.674 1.603 2.674zm0-.511c-.588 0-.98-.651-.98-2.163 0-1.498.392-2.135.98-2.135.58 0 .973.637.973 2.135 0 1.512-.392 2.163-.973 2.163zm3.533.511c.973 0 1.596-.889 1.596-2.674 0-1.778-.623-2.646-1.596-2.646-.98 0-1.603.861-1.603 2.646s.623 2.674 1.603 2.674zm0-.511c-.588 0-.98-.651-.98-2.163 0-1.498.392-2.135.98-2.135.58 0 .973.637.973 2.135 0 1.512-.392 2.163-.973 2.163zm4.54-2.331H20.75v-1.988h1.765v1.988zm.56-2.45H20.19v2.905h2.884v-2.905zm-1.603 3.605h-.573v1.974h4.186v-.469H21.47v-1.505zm3.332-2.254v-1.918h-.573v4.599h.573v-2.198h.924v-.483h-.924zM297.616 158h2.814v-.532h-1.029v-4.606h-.49c-.28.168-.609.287-1.064.371v.406h.91v3.829h-1.141V158zm4.863.091c.973 0 1.596-.889 1.596-2.674 0-1.778-.623-2.646-1.596-2.646-.98 0-1.603.861-1.603 2.646s.623 2.674 1.603 2.674zm0-.511c-.588 0-.98-.651-.98-2.163 0-1.498.392-2.135.98-2.135.581 0 .973.637.973 2.135 0 1.512-.392 2.163-.973 2.163zm3.533.511c.973 0 1.596-.889 1.596-2.674 0-1.778-.623-2.646-1.596-2.646-.98 0-1.603.861-1.603 2.646s.623 2.674 1.603 2.674zm0-.511c-.588 0-.98-.651-.98-2.163 0-1.498.392-2.135.98-2.135.581 0 .973.637.973 2.135 0 1.512-.392 2.163-.973 2.163zm3.021-1.568c.707 0 1.169-.595 1.169-1.631 0-1.029-.462-1.61-1.169-1.61-.7 0-1.162.581-1.162 1.61 0 1.036.462 1.631 1.162 1.631zm0-.399c-.399 0-.679-.413-.679-1.232s.28-1.218.679-1.218c.406 0 .686.399.686 1.218s-.28 1.232-.686 1.232zm.154 2.478h.427l2.835-5.32h-.434l-2.828 5.32zm3.423 0c.7 0 1.162-.588 1.162-1.624 0-1.029-.462-1.61-1.162-1.61s-1.169.581-1.169 1.61c0 1.036.469 1.624 1.169 1.624zm0-.392c-.406 0-.679-.413-.679-1.232s.273-1.218.679-1.218c.399 0 .679.399.679 1.218s-.28 1.232-.679 1.232zM5.658 84.091c.868 0 1.68-.637 1.68-1.764s-.693-1.631-1.547-1.631c-.308 0-.532.077-.763.203l.126-1.484h1.939v-.553H4.594l-.161 2.408.343.21c.294-.196.511-.301.854-.301.644 0 1.064.434 1.064 1.169 0 .749-.49 1.211-1.092 1.211-.595 0-.966-.273-1.26-.567l-.315.42c.343.343.833.679 1.631.679zm2.23 1.239c.63-.266 1.023-.791 1.023-1.463 0-.469-.203-.756-.54-.756-.258 0-.482.175-.482.448 0 .294.224.448.469.448.028 0 .049 0 .077-.007 0 .413-.26.756-.7.952l.154.378zm3.02-1.239c.973 0 1.596-.889 1.596-2.674 0-1.778-.623-2.646-1.596-2.646-.98 0-1.603.861-1.603 2.646s.623 2.674 1.603 2.674zm0-.511c-.588 0-.98-.651-.98-2.163 0-1.498.392-2.135.98-2.135.581 0 .973.637.973 2.135 0 1.512-.392 2.163-.973 2.163zm3.533.511c.973 0 1.596-.889 1.596-2.674 0-1.778-.623-2.646-1.596-2.646-.98 0-1.603.861-1.603 2.646s.623 2.674 1.603 2.674zm0-.511c-.588 0-.98-.651-.98-2.163 0-1.498.392-2.135.98-2.135.58 0 .973.637.973 2.135 0 1.512-.392 2.163-.973 2.163zm3.533.511c.973 0 1.596-.889 1.596-2.674 0-1.778-.623-2.646-1.596-2.646-.98 0-1.603.861-1.603 2.646s.623 2.674 1.603 2.674zm0-.511c-.588 0-.98-.651-.98-2.163 0-1.498.392-2.135.98-2.135.58 0 .973.637.973 2.135 0 1.512-.392 2.163-.973 2.163zm4.54-2.331H20.75v-1.988h1.765v1.988zm.56-2.45H20.19v2.905h2.884v-2.905zm-1.603 3.605h-.573v1.974h4.186v-.469H21.47v-1.505zm3.332-2.254v-1.918h-.573v4.599h.573v-2.198h.924v-.483h-.924zM298.827 84.091c.868 0 1.68-.637 1.68-1.764s-.693-1.631-1.547-1.631c-.308 0-.532.077-.763.203l.126-1.484h1.939v-.553h-2.499l-.161 2.408.343.21c.294-.196.511-.301.854-.301.644 0 1.064.434 1.064 1.169 0 .749-.49 1.211-1.092 1.211-.595 0-.966-.273-1.26-.567l-.315.42c.343.343.833.679 1.631.679zm3.652 0c.973 0 1.596-.889 1.596-2.674 0-1.778-.623-2.646-1.596-2.646-.98 0-1.603.861-1.603 2.646s.623 2.674 1.603 2.674zm0-.511c-.588 0-.98-.651-.98-2.163 0-1.498.392-2.135.98-2.135.581 0 .973.637.973 2.135 0 1.512-.392 2.163-.973 2.163zm3.533.511c.973 0 1.596-.889 1.596-2.674 0-1.778-.623-2.646-1.596-2.646-.98 0-1.603.861-1.603 2.646s.623 2.674 1.603 2.674zm0-.511c-.588 0-.98-.651-.98-2.163 0-1.498.392-2.135.98-2.135.581 0 .973.637.973 2.135 0 1.512-.392 2.163-.973 2.163zm3.021-1.568c.707 0 1.169-.595 1.169-1.631 0-1.029-.462-1.61-1.169-1.61-.7 0-1.162.581-1.162 1.61 0 1.036.462 1.631 1.162 1.631zm0-.399c-.399 0-.679-.413-.679-1.232s.28-1.218.679-1.218c.406 0 .686.399.686 1.218s-.28 1.232-.686 1.232zm.154 2.478h.427l2.835-5.32h-.434l-2.828 5.32zm3.423 0c.7 0 1.162-.588 1.162-1.624 0-1.029-.462-1.61-1.162-1.61s-1.169.581-1.169 1.61c0 1.036.469 1.624 1.169 1.624zm0-.392c-.406 0-.679-.413-.679-1.232s.273-1.218.679-1.218c.399 0 .679.399.679 1.218s-.28 1.232-.679 1.232zM.914 8h2.814v-.532H2.7V2.862h-.49c-.28.168-.609.287-1.064.371v.406h.91v3.829H.915V8zm4.863.091c.973 0 1.596-.889 1.596-2.674 0-1.778-.623-2.646-1.596-2.646-.98 0-1.603.861-1.603 2.646s.623 2.674 1.603 2.674zm0-.511c-.588 0-.98-.651-.98-2.163 0-1.498.392-2.135.98-2.135.581 0 .973.637.973 2.135 0 1.512-.392 2.163-.973 2.163zM7.89 9.33c.63-.266 1.022-.791 1.022-1.463 0-.469-.203-.756-.54-.756-.258 0-.482.175-.482.448 0 .294.224.448.469.448.028 0 .049 0 .077-.007 0 .413-.26.756-.7.952l.154.378zm3.02-1.239c.972 0 1.595-.889 1.595-2.674 0-1.778-.623-2.646-1.596-2.646-.98 0-1.603.861-1.603 2.646s.623 2.674 1.603 2.674zm0-.511c-.589 0-.98-.651-.98-2.163 0-1.498.391-2.135.98-2.135.58 0 .972.637.972 2.135 0 1.512-.392 2.163-.973 2.163zm3.532.511c.973 0 1.596-.889 1.596-2.674 0-1.778-.623-2.646-1.596-2.646-.98 0-1.603.861-1.603 2.646s.623 2.674 1.603 2.674zm0-.511c-.588 0-.98-.651-.98-2.163 0-1.498.392-2.135.98-2.135.58 0 .973.637.973 2.135 0 1.512-.392 2.163-.973 2.163zm3.533.511c.973 0 1.596-.889 1.596-2.674 0-1.778-.623-2.646-1.596-2.646-.98 0-1.603.861-1.603 2.646s.623 2.674 1.603 2.674zm0-.511c-.588 0-.98-.651-.98-2.163 0-1.498.392-2.135.98-2.135.58 0 .973.637.973 2.135 0 1.512-.392 2.163-.973 2.163zm4.54-2.331H20.75V3.261h1.765v1.988zm.56-2.45H20.19v2.905h2.884V2.799zm-1.603 3.605h-.573v1.974h4.186v-.469H21.47V6.404zm3.332-2.254V2.232h-.573v4.599h.573V4.633h.924V4.15h-.924zM297.616 8h2.814v-.532h-1.029V2.862h-.49c-.28.168-.609.287-1.064.371v.406h.91v3.829h-1.141V8zm3.442 1.33c.63-.266 1.022-.791 1.022-1.463 0-.469-.203-.756-.539-.756-.259 0-.483.175-.483.448 0 .294.224.448.469.448.028 0 .049 0 .077-.007 0 .413-.259.756-.7.952l.154.378zm3.019-1.239c.973 0 1.596-.889 1.596-2.674 0-1.778-.623-2.646-1.596-2.646-.98 0-1.603.861-1.603 2.646s.623 2.674 1.603 2.674zm0-.511c-.588 0-.98-.651-.98-2.163 0-1.498.392-2.135.98-2.135.581 0 .973.637.973 2.135 0 1.512-.392 2.163-.973 2.163zm3.533.511c.973 0 1.596-.889 1.596-2.674 0-1.778-.623-2.646-1.596-2.646-.98 0-1.603.861-1.603 2.646s.623 2.674 1.603 2.674zm0-.511c-.588 0-.98-.651-.98-2.163 0-1.498.392-2.135.98-2.135.581 0 .973.637.973 2.135 0 1.512-.392 2.163-.973 2.163zm3.533.511c.973 0 1.596-.889 1.596-2.674 0-1.778-.623-2.646-1.596-2.646-.98 0-1.603.861-1.603 2.646s.623 2.674 1.603 2.674zm0-.511c-.588 0-.98-.651-.98-2.163 0-1.498.392-2.135.98-2.135.581 0 .973.637.973 2.135 0 1.512-.392 2.163-.973 2.163zm3.021-1.568c.707 0 1.169-.595 1.169-1.631 0-1.029-.462-1.61-1.169-1.61-.7 0-1.162.581-1.162 1.61 0 1.036.462 1.631 1.162 1.631zm0-.399c-.399 0-.679-.413-.679-1.232s.28-1.218.679-1.218c.406 0 .686.399.686 1.218s-.28 1.232-.686 1.232zm.154 2.478h.427l2.835-5.32h-.434l-2.828 5.32zm3.423 0c.7 0 1.162-.588 1.162-1.624 0-1.029-.462-1.61-1.162-1.61s-1.169.581-1.169 1.61c0 1.036.469 1.624 1.169 1.624zm0-.392c-.406 0-.679-.413-.679-1.232s.273-1.218.679-1.218c.399 0 .679.399.679 1.218s-.28 1.232-.679 1.232zM126.467 194h4.61v-.79h-2.03c-.37 0-.82.04-1.2.07 1.72-1.63 2.87-3.12 2.87-4.58 0-1.31-.82-2.17-2.13-2.17-.93 0-1.56.43-2.16 1.08l.53.52c.4-.48.92-.85 1.52-.85.91 0 1.35.61 1.35 1.45 0 1.26-1.06 2.72-3.36 4.73v.54zm5.937-3.87c1.39-.24 2.71-.99 3.26-2.05.54 1.06 1.87 1.81 3.26 2.05l.32-.65c-1.58-.23-3.13-1.26-3.13-2.44v-.05h2.81v-.66h-6.55v.66h2.83v.05c0 1.18-1.55 2.21-3.11 2.44l.31.65zm7.31.75h-8.1v.67h3.62v3.19h.82v-3.19h3.67l-.01-.67zm3.589-2.9h1.99v-.66h-1.99v-1.39h-.82v1.39h-2.02v.66h2.03v.7c0 1.55-.96 3.07-2.27 3.71l.46.62c1.02-.5 1.84-1.54 2.22-2.77.38 1.15 1.14 2.13 2.12 2.61l.46-.64c-1.29-.62-2.18-2.09-2.18-3.53v-.7zm5.38 1.48h-1.48v-3.69h-.82v8.97h.82v-4.6h1.48v-.68zM237.177 191.25l1.67-2.5c.21-.36.41-.72.59-1.08h.04c-.02.38-.05.97-.05 1.33v2.25h-2.25zm2.25 2.75h.86v-2.02h.97v-.73h-.97v-4.59h-1.01l-3.05 4.72v.6h3.2V194zm2.977-3.87c1.39-.24 2.71-.99 3.26-2.05.54 1.06 1.87 1.81 3.26 2.05l.32-.65c-1.58-.23-3.13-1.26-3.13-2.44v-.05h2.81v-.66h-6.55v.66h2.83v.05c0 1.18-1.55 2.21-3.11 2.44l.31.65zm7.31.75h-8.1v.67h3.62v3.19h.82v-3.19h3.67l-.01-.67zm3.589-2.9h1.99v-.66h-1.99v-1.39h-.82v1.39h-2.02v.66h2.03v.7c0 1.55-.96 3.07-2.27 3.71l.46.62c1.02-.5 1.84-1.54 2.22-2.77.38 1.15 1.14 2.13 2.12 2.61l.46-.64c-1.29-.62-2.18-2.09-2.18-3.53v-.7zm5.38 1.48h-1.48v-3.69h-.82v8.97h.82v-4.6h1.48v-.68z"/>
    <circle cx="137.5" cy="42.5" r="2.5" fill="#5C6AFF"/>
    <circle cx="189.5" cy="26.5" r="2.5" fill="#5C6AFF"/>
    <circle cx="246.5" cy="6.5" r="2.5" fill="#5C6AFF"/>
    <path stroke="#5C6AFF" d="M85 76.5c9.667-.333 34.2-8.3 55-37.5 20.8-29.2 42.333-19.833 50.5-11.5C202.833 34.667 231.4 40.4 247 6"/>
    <circle cx="84.5" cy="76.5" r="2.5" fill="#5C6AFF"/>
</svg>
