<svg xmlns="http://www.w3.org/2000/svg" width="16" height="14" fill="none" viewBox="0 0 16 14">
    <path fill="#fff" d="M0 0H1920V1187H0z" transform="translate(-1058 -468)"/>
    <rect width="1437" height="469" x="-816.5" y="-37.5" fill="#fff" stroke="#D5D5D5" rx="34.5"/>
    <rect width="264" height="31" x="-230.5" y="-8.5" fill="#fff" stroke="#D5D5D5" rx="15.5"/>
    <path fill="#898989" d="M0 4.18v8.46C0 13.39.615 14 1.371 14H14.63c.756 0 1.371-.61 1.371-1.36V4.18H0zm5.298 7.76c0 .172-.14.312-.315.312H2.972c-.174 0-.315-.14-.315-.312V9.876c0-.172.141-.312.315-.312h2.011c.174 0 .315.14.315.312v2.064zm0-3.92c0 .173-.14.312-.315.312H2.972c-.174 0-.315-.14-.315-.312V5.957c0-.173.141-.313.315-.313h2.011c.174 0 .315.14.315.313V8.02zm4.023 3.92c0 .172-.141.312-.315.312H6.994c-.174 0-.315-.14-.315-.312V9.876c0-.172.141-.312.315-.312h2.012c.174 0 .315.14.315.312v2.064zm0-3.92c0 .173-.141.312-.315.312H6.994c-.174 0-.315-.14-.315-.312V5.957c0-.173.141-.313.315-.313h2.012c.174 0 .315.14.315.313V8.02zm4.022 3.92c0 .172-.141.312-.315.312h-2.011c-.174 0-.315-.14-.315-.312V9.876c0-.172.14-.312.315-.312h2.011c.174 0 .315.14.315.312v2.064zm0-3.92c0 .173-.141.312-.315.312h-2.011c-.174 0-.315-.14-.315-.312V5.957c0-.173.14-.313.315-.313h2.011c.174 0 .315.14.315.313V8.02zM14.629 1.167h-1.305V.469c0-.26-.211-.469-.472-.469s-.473.21-.473.469v.698H10.9V.469c0-.26-.212-.469-.473-.469s-.473.21-.473.469v.698h-1.48V.469C8.473.209 8.26 0 8 0c-.26 0-.472.21-.472.469v.698H6.047V.469c0-.26-.212-.469-.473-.469-.26 0-.472.21-.472.469v.698H3.62V.469C3.62.209 3.409 0 3.148 0c-.26 0-.472.21-.472.469v.698H1.37C.615 1.167 0 1.777 0 2.527v1.029h16v-1.03c0-.75-.615-1.36-1.371-1.36z"/>
</svg>
