<svg xmlns="http://www.w3.org/2000/svg" width="139" height="49" fill="none" viewBox="0 0 139 49">
    <path fill="#fff" d="M710-415h-834V696h834V-415z"/>
    <path fill="#fff" d="M650-192H-64c-19.33 0-35 15.67-35 35v450c0 19.33 15.67 35 35 35h714c19.33 0 35-15.67 35-35v-450c0-19.33-15.67-35-35-35z"/>
    <path stroke="#D5D5D5" d="M650-191.5H-64c-19.054 0-34.5 15.446-34.5 34.5v450c0 19.054 15.446 34.5 34.5 34.5h714c19.054 0 34.5-15.446 34.5-34.5v-450c0-19.054-15.446-34.5-34.5-34.5z"/>
    <rect width="133" height="42" x="3" y="1" fill="#5C6AFF" rx="6"/>
    <path fill="#5C6AFF" d="M69.366 47.5c-.385.667-1.347.667-1.732 0l-3.031-5.25c-.385-.667.096-1.5.866-1.5h6.062c.77 0 1.251.833.866 1.5l-3.031 5.25z"/>
    <path fill="#fff" d="M14.62 11.46h1.88v4.22h-1.88v-4.22zm-.77 4.87h3.41v-5.52h-3.41v5.52zm6.52-6.56v3.55h-1.21V9.97h-.77v8.32h.77v-4.3h1.21v4.74h.78V9.77h-.78zm2.53 3.58c1.51-.12 2.84-.58 3.39-1.41.55.83 1.87 1.29 3.37 1.41l.25-.62c-1.67-.11-3.02-.66-3.16-1.55h2.76v-.62H26.7v-.85h-.82v.85h-2.82v.62h2.77c-.14.89-1.51 1.44-3.17 1.55l.24.62zm7.43 1.03v-.63h-8.09v.63h3.63v.83H23.2v.61h5.29v.76h-5.26v2.06h6.34v-.62h-5.54v-.85h5.27v-1.96h-2.6v-.83h3.63zm4.595 3.75c1.38 0 2.3-.83 2.3-1.9 0-1-.6-1.55-1.24-1.92v-.05c.44-.34.98-1 .98-1.77 0-1.13-.76-1.93-2.01-1.93-1.14 0-2.01.74-2.01 1.86 0 .77.45 1.32.99 1.69v.05c-.67.36-1.35 1.04-1.35 2.02 0 1.13.99 1.95 2.34 1.95zm.5-4.11c-.86-.34-1.65-.72-1.65-1.6 0-.71.49-1.19 1.17-1.19.79 0 1.24.59 1.24 1.31 0 .54-.26 1.04-.76 1.48zm-.48 3.43c-.88 0-1.53-.57-1.53-1.35 0-.7.41-1.28 1-1.66 1.04.42 1.94.79 1.94 1.77 0 .73-.57 1.24-1.41 1.24zm4.877.68c1.3 0 2.35-.78 2.35-2.09 0-1-.69-1.66-1.55-1.86v-.04c.77-.29 1.3-.88 1.3-1.77 0-1.16-.9-1.84-2.13-1.84-.85 0-1.5.37-2.05.88l.49.58c.41-.42.93-.71 1.52-.71.76 0 1.24.46 1.24 1.16 0 .79-.52 1.4-2.03 1.4v.7c1.69 0 2.28.59 2.28 1.46 0 .85-.62 1.37-1.49 1.37-.83 0-1.39-.39-1.82-.84l-.46.6c.48.52 1.2 1 2.35 1zm3.156 1.77c.9-.38 1.46-1.13 1.46-2.09 0-.67-.29-1.08-.77-1.08-.37 0-.69.25-.69.64 0 .42.32.64.67.64.04 0 .07 0 .11-.01 0 .59-.37 1.08-1 1.36l.22.54zm4.144-1.77c1.24 0 2.4-.91 2.4-2.52 0-1.61-.99-2.33-2.21-2.33-.44 0-.76.11-1.09.29l.18-2.12h2.77v-.79h-3.57l-.23 3.44.49.3c.42-.28.73-.43 1.22-.43.92 0 1.52.62 1.52 1.67 0 1.07-.7 1.73-1.56 1.73-.85 0-1.38-.39-1.8-.81l-.45.6c.49.49 1.19.97 2.33.97zm3.317-.13h4.02v-.76h-1.47v-6.58h-.7c-.4.24-.87.41-1.52.53v.58h1.3v5.47h-1.63V18zm6.806.13c1.3 0 2.35-.78 2.35-2.09 0-1-.69-1.66-1.55-1.86v-.04c.77-.29 1.3-.88 1.3-1.77 0-1.16-.9-1.84-2.13-1.84-.85 0-1.5.37-2.05.88l.49.58c.41-.42.93-.71 1.52-.71.76 0 1.24.46 1.24 1.16 0 .79-.52 1.4-2.03 1.4v.7c1.69 0 2.28.59 2.28 1.46 0 .85-.62 1.37-1.49 1.37-.83 0-1.39-.39-1.82-.84l-.46.6c.48.52 1.2 1 2.35 1zm3.157 1.77c.9-.38 1.46-1.13 1.46-2.09 0-.67-.29-1.08-.77-1.08-.37 0-.69.25-.69.64 0 .42.32.64.67.64.04 0 .07 0 .11-.01 0 .59-.37 1.08-1 1.36l.22.54zm4.314-1.77c1.39 0 2.28-1.27 2.28-3.82 0-2.54-.89-3.78-2.28-3.78-1.4 0-2.29 1.23-2.29 3.78s.89 3.82 2.29 3.82zm0-.73c-.84 0-1.4-.93-1.4-3.09 0-2.14.56-3.05 1.4-3.05.83 0 1.39.91 1.39 3.05 0 2.16-.56 3.09-1.39 3.09zm5.046.73c1.39 0 2.28-1.27 2.28-3.82 0-2.54-.89-3.78-2.28-3.78-1.4 0-2.29 1.23-2.29 3.78s.89 3.82 2.29 3.82zm0-.73c-.84 0-1.4-.93-1.4-3.09 0-2.14.56-3.05 1.4-3.05.83 0 1.39.91 1.39 3.05 0 2.16-.56 3.09-1.39 3.09zm5.047.73c1.39 0 2.28-1.27 2.28-3.82 0-2.54-.89-3.78-2.28-3.78-1.4 0-2.29 1.23-2.29 3.78s.89 3.82 2.29 3.82zm0-.73c-.84 0-1.4-.93-1.4-3.09 0-2.14.56-3.05 1.4-3.05.83 0 1.39.91 1.39 3.05 0 2.16-.56 3.09-1.39 3.09zm7.497-2.33v.61h1.82v.92h.82V9.77h-.82v5.3h-1.82zm-1.83-4.33c.85 0 1.43.38 1.43.95 0 .58-.58.96-1.43.96s-1.43-.38-1.43-.96c0-.57.58-.95 1.43-.95zm0 2.52c1.31 0 2.21-.61 2.21-1.57 0-.94-.9-1.56-2.21-1.56s-2.21.62-2.21 1.56c0 .96.9 1.57 2.21 1.57zm-.32 3.02h.82v-1.77c.81-.05 1.64-.14 2.43-.26l-.07-.59c-1.9.24-4.12.26-5.78.26l.11.68c.74 0 1.6-.01 2.49-.05v1.73zm-.5 1.59v-1.94h-.82v2.61h6.34v-.67h-5.52zM18.23 27.25c.23-1.06.23-1.87.23-2.44v-.48h-4.44v.66h3.64c0 .54-.02 1.24-.23 2.19l.8.07zm.86.56c-.92.11-1.93.18-2.91.22v-1.75h-.81v1.77c-.67.02-1.33.02-1.9.02l.09.68c1.61 0 3.73-.05 5.59-.34l-.06-.6zm-1.47 4.26c-1.33 0-2.15-.36-2.15-.98 0-.61.82-.97 2.15-.97s2.15.36 2.15.97c0 .62-.82.98-2.15.98zm0-2.59c-1.84 0-2.98.59-2.98 1.61 0 1.04 1.14 1.63 2.98 1.63s2.98-.59 2.98-1.63c0-1.02-1.14-1.61-2.98-1.61zm2.89-3.26v-2.46h-.82v5.6h.82V26.9h1.27v-.68h-1.27zm8.05-.66c0 1.08 0 2.34-.34 4.06l.82.09c.34-1.81.34-3.04.34-4.15v-.89h-6.29v.67h5.47v.22zm-2.35 5.25V27.6h-.82v3.21h-3.15v.67h8.11v-.67h-4.14zm12.438-3.62c-1.63-.24-3.23-1.35-3.23-2.6v-.5h-.86v.5c0 1.28-1.58 2.36-3.21 2.6l.33.66c1.4-.24 2.75-1.01 3.31-2.1.58 1.08 1.93 1.86 3.32 2.1l.34-.66zm.39 1.63h-8.1v.68h3.62v3.25h.82V29.5h3.67l-.01-.68zm1.96.78v.66h5.17v2.49h.82V29.6h-5.99zm5.17-5.82v5.33h.82v-5.33h-.82zm-3.99.53c-1.36 0-2.34.86-2.34 2.12 0 1.26.98 2.12 2.34 2.12 1.35 0 2.34-.86 2.34-2.12 0-1.26-.99-2.12-2.34-2.12zm0 .69c.89 0 1.54.59 1.54 1.43s-.65 1.43-1.54 1.43c-.9 0-1.54-.59-1.54-1.43s.64-1.43 1.54-1.43zm12.429.33h-5.24v1.92h6.21v-.6h-5.4v-.76h5.24v-1.87h-6.07v.58h5.26v.73zm-1.16 3.97h-2.11v-.82h2.11v.82zm3.01-.82v-.61h-8.14v.61h2.2v.82h-1.23v.59h5.35v.75h-5.32v2h6.41v-.6h-5.6v-.83h5.32V29.3h-1.18v-.82h2.19zm2.43 5.49l.57-.27c-.87-1.42-1.28-3.11-1.28-4.81 0-1.7.41-3.38 1.28-4.81l-.57-.26c-.92 1.49-1.47 3.11-1.47 5.07 0 1.97.55 3.58 1.47 5.08zM60.374 32h.93v-3.11h1.32l1.78 3.11h1.05l-1.88-3.21c1-.24 1.66-.92 1.66-2.06 0-1.53-1.07-2.07-2.56-2.07h-2.3V32zm.93-3.86v-2.72h1.23c1.15 0 1.78.34 1.78 1.31 0 .95-.63 1.41-1.78 1.41h-1.23zm7.637 3.99c1.84 0 3.13-1.47 3.13-3.82 0-2.35-1.29-3.78-3.13-3.78-1.84 0-3.13 1.43-3.13 3.78 0 2.35 1.29 3.82 3.13 3.82zm0-.81c-1.32 0-2.18-1.18-2.18-3.01 0-1.84.86-2.97 2.18-2.97 1.31 0 2.18 1.13 2.18 2.97 0 1.83-.87 3.01-2.18 3.01zm5.375-3.42c.26-.83.5-1.62.73-2.48h.04c.24.85.47 1.65.74 2.48l.35 1.12h-2.22l.36-1.12zm-2.24 4.1h.94l.71-2.24h2.68l.7 2.24h.98l-2.49-7.34h-1.03L72.077 32zm8.584.13c1.53 0 2.49-.92 2.49-2.08 0-1.09-.66-1.59-1.51-1.96l-1.05-.45c-.57-.24-1.21-.51-1.21-1.22 0-.66.54-1.08 1.37-1.08.68 0 1.22.27 1.67.69l.49-.59c-.52-.54-1.29-.91-2.16-.91-1.33 0-2.31.82-2.31 1.95 0 1.07.81 1.59 1.49 1.88l1.06.46c.69.31 1.22.55 1.22 1.3 0 .72-.58 1.2-1.54 1.2-.76 0-1.5-.36-2.02-.91l-.56.63c.64.67 1.53 1.09 2.57 1.09zm3.417 1.84c.93-1.5 1.48-3.11 1.48-5.08 0-1.96-.55-3.58-1.48-5.07l-.56.26c.86 1.43 1.28 3.11 1.28 4.81 0 1.7-.42 3.39-1.28 4.81l.56.27zm6.415-1.84c1.38 0 2.3-.83 2.3-1.9 0-1-.6-1.55-1.24-1.92v-.05c.44-.34.98-1 .98-1.77 0-1.13-.76-1.93-2.01-1.93-1.14 0-2.01.74-2.01 1.86 0 .77.45 1.32.99 1.69v.05c-.67.36-1.35 1.04-1.35 2.02 0 1.13.99 1.95 2.34 1.95zm.5-4.11c-.86-.34-1.65-.72-1.65-1.6 0-.71.49-1.19 1.17-1.19.79 0 1.24.59 1.24 1.31 0 .54-.26 1.04-.76 1.48zm-.48 3.43c-.88 0-1.53-.57-1.53-1.35 0-.7.41-1.28 1-1.66 1.04.42 1.94.79 1.94 1.77 0 .73-.57 1.24-1.41 1.24zm3.387-2.2l1.67-2.5c.21-.36.41-.72.59-1.08h.04c-.02.38-.05.97-.05 1.33v2.25H93.9zM96.15 32h.86v-2.02h.97v-.73h-.97v-4.59H96l-3.05 4.72v.6h3.2V32zm4.437.13c1.38 0 2.3-.83 2.3-1.9 0-1-.6-1.55-1.24-1.92v-.05c.44-.34.98-1 .98-1.77 0-1.13-.76-1.93-2.01-1.93-1.14 0-2.01.74-2.01 1.86 0 .77.45 1.32.99 1.69v.05c-.67.36-1.35 1.04-1.35 2.02 0 1.13.99 1.95 2.34 1.95zm.5-4.11c-.86-.34-1.65-.72-1.65-1.6 0-.71.49-1.19 1.17-1.19.79 0 1.24.59 1.24 1.31 0 .54-.26 1.04-.76 1.48zm-.48 3.43c-.88 0-1.53-.57-1.53-1.35 0-.7.41-1.28 1-1.66 1.04.42 1.94.79 1.94 1.77 0 .73-.57 1.24-1.41 1.24zm3.627.68c.36 0 .66-.28.66-.69 0-.42-.3-.71-.66-.71-.36 0-.66.29-.66.71 0 .41.3.69.66.69zm2.043-2.88l1.67-2.5c.21-.36.41-.72.59-1.08h.04c-.02.38-.05.97-.05 1.33v2.25h-2.25zm2.25 2.75h.86v-2.02h.97v-.73h-.97v-4.59h-1.01l-3.05 4.72v.6h3.2V32zm4.437.13c1.38 0 2.3-.83 2.3-1.9 0-1-.6-1.55-1.24-1.92v-.05c.44-.34.98-1 .98-1.77 0-1.13-.76-1.93-2.01-1.93-1.14 0-2.01.74-2.01 1.86 0 .77.45 1.32.99 1.69v.05c-.67.36-1.35 1.04-1.35 2.02 0 1.13.99 1.95 2.34 1.95zm.5-4.11c-.86-.34-1.65-.72-1.65-1.6 0-.71.49-1.19 1.17-1.19.79 0 1.24.59 1.24 1.31 0 .54-.26 1.04-.76 1.48zm-.48 3.43c-.88 0-1.53-.57-1.53-1.35 0-.7.41-1.28 1-1.66 1.04.42 1.94.79 1.94 1.77 0 .73-.57 1.24-1.41 1.24zm4.287-2.29c1.01 0 1.67-.85 1.67-2.33 0-1.47-.66-2.3-1.67-2.3-1 0-1.66.83-1.66 2.3 0 1.48.66 2.33 1.66 2.33zm0-.57c-.57 0-.97-.59-.97-1.76s.4-1.74.97-1.74c.58 0 .98.57.98 1.74s-.4 1.76-.98 1.76zm.22 3.54h.61l4.05-7.6h-.62l-4.04 7.6zm4.89 0c1 0 1.66-.84 1.66-2.32 0-1.47-.66-2.3-1.66-2.3-1 0-1.67.83-1.67 2.3 0 1.48.67 2.32 1.67 2.32zm0-.56c-.58 0-.97-.59-.97-1.76s.39-1.74.97-1.74c.57 0 .97.57.97 1.74s-.4 1.76-.97 1.76z"/>
</svg>
