<svg xmlns="http://www.w3.org/2000/svg" width="150" height="12" fill="none" viewBox="0 0 150 12">
    <path fill="#fff" d="M0 0H1920V1187H0z" transform="translate(-792 -812)"/>
    <rect width="1437" height="469" x="-550.5" y="-381.5" fill="#fff" stroke="#D5D5D5" rx="34.5"/>
    <path fill="#898989" d="M13.963 9h.819V4.779h1.035v-.666h-1.035v-.774c0-.63.225-.963.693-.963.171 0 .369.045.549.126l.18-.621c-.225-.099-.522-.162-.819-.162-.972 0-1.422.621-1.422 1.611v.783l-.666.045v.621h.666V9zm3.265.117c.603 0 1.152-.315 1.62-.702h.027l.072.585h.675V5.994c0-1.206-.504-2.007-1.692-2.007-.783 0-1.476.351-1.926.639l.324.567c.387-.261.9-.522 1.467-.522.8 0 1.008.603 1.008 1.233-2.08.234-3.006.765-3.006 1.827 0 .882.612 1.386 1.43 1.386zm.234-.657c-.486 0-.864-.225-.864-.783 0-.63.558-1.035 2.205-1.233v1.368c-.477.423-.864.648-1.341.648zm5.197.657c.585 0 1.143-.225 1.584-.621l-.36-.549c-.306.279-.702.486-1.152.486-.9 0-1.512-.747-1.512-1.872s.648-1.89 1.539-1.89c.387 0 .684.18.972.432l.423-.54c-.351-.306-.792-.576-1.431-.576-1.251 0-2.358.945-2.358 2.574 0 1.62.999 2.556 2.295 2.556zm3.954 0c.666 0 1.188-.225 1.62-.504l-.297-.54c-.36.243-.747.387-1.224.387-.927 0-1.566-.666-1.62-1.71h3.294c.018-.117.036-.288.036-.468 0-1.395-.702-2.295-1.944-2.295-1.134 0-2.205.99-2.205 2.574 0 1.611 1.044 2.556 2.34 2.556zm-1.53-2.961c.1-.954.711-1.512 1.404-1.512.765 0 1.215.531 1.215 1.512h-2.619zm6.244 2.961c1.125 0 2.123-.963 2.123-2.646 0-1.494-.684-2.484-1.953-2.484-.54 0-1.088.306-1.53.693l.027-.882V1.836h-.819V9h.657l.072-.504h.037c.422.387.936.621 1.386.621zm-.136-.684c-.323 0-.764-.135-1.197-.513V5.355c.468-.441.9-.675 1.314-.675.928 0 1.288.729 1.288 1.809 0 1.215-.594 1.944-1.404 1.944zm4.997.684c1.197 0 2.268-.936 2.268-2.556 0-1.629-1.071-2.574-2.268-2.574-1.197 0-2.268.945-2.268 2.574 0 1.62 1.07 2.556 2.268 2.556zm0-.684c-.846 0-1.413-.747-1.413-1.872s.567-1.89 1.413-1.89c.846 0 1.422.765 1.422 1.89s-.576 1.872-1.422 1.872zm5.008.684c1.197 0 2.268-.936 2.268-2.556 0-1.629-1.071-2.574-2.268-2.574-1.197 0-2.268.945-2.268 2.574 0 1.62 1.07 2.556 2.268 2.556zm0-.684c-.846 0-1.413-.747-1.413-1.872s.567-1.89 1.413-1.89c.846 0 1.422.765 1.422 1.89s-.576 1.872-1.422 1.872zM44.305 9h.81V7.713l.918-1.071L47.464 9h.891L46.51 6.084l1.629-1.971h-.918l-2.079 2.583h-.027v-4.86h-.81V9zM76.475 11.25c1.512 0 2.475-.783 2.475-1.692 0-.801-.576-1.161-1.71-1.161h-.954c-.657 0-.855-.216-.855-.531 0-.27.135-.432.315-.585.216.108.486.171.729.171.99 0 1.782-.657 1.782-1.701 0-.423-.162-.783-.396-1.008h.999v-.63h-1.701c-.171-.063-.414-.126-.684-.126-.99 0-1.836.675-1.836 1.746 0 .585.315 1.053.639 1.314v.036c-.252.18-.549.504-.549.909 0 .387.189.648.45.801v.036c-.459.297-.72.693-.72 1.107 0 .846.819 1.314 2.016 1.314zm0-4.356c-.567 0-1.044-.45-1.044-1.161 0-.72.468-1.143 1.044-1.143.576 0 1.044.432 1.044 1.143 0 .711-.486 1.161-1.044 1.161zm.117 3.798c-.882 0-1.413-.342-1.413-.864 0-.288.144-.576.495-.828.216.054.45.081.63.081h.846c.648 0 .999.153.999.603 0 .513-.621 1.008-1.557 1.008zm4.624-1.575c1.198 0 2.269-.936 2.269-2.556 0-1.629-1.072-2.574-2.269-2.574s-2.267.945-2.267 2.574c0 1.62 1.07 2.556 2.267 2.556zm0-.684c-.845 0-1.412-.747-1.412-1.872s.567-1.89 1.412-1.89c.847 0 1.422.765 1.422 1.89s-.576 1.872-1.422 1.872zm5.009.684c1.197 0 2.268-.936 2.268-2.556 0-1.629-1.072-2.574-2.268-2.574-1.197 0-2.268.945-2.268 2.574 0 1.62 1.07 2.556 2.268 2.556zm0-.684c-.846 0-1.413-.747-1.413-1.872s.567-1.89 1.413-1.89c.846 0 1.422.765 1.422 1.89s-.577 1.872-1.422 1.872zm4.756 2.817c1.512 0 2.475-.783 2.475-1.692 0-.801-.577-1.161-1.71-1.161h-.954c-.657 0-.856-.216-.856-.531 0-.27.135-.432.315-.585.216.108.486.171.73.171.99 0 1.782-.657 1.782-1.701 0-.423-.163-.783-.397-1.008h1v-.63h-1.701c-.172-.063-.415-.126-.684-.126-.99 0-1.837.675-1.837 1.746 0 .585.316 1.053.64 1.314v.036c-.253.18-.55.504-.55.909 0 .387.19.648.45.801v.036c-.459.297-.72.693-.72 1.107 0 .846.82 1.314 2.017 1.314zm0-4.356c-.567 0-1.044-.45-1.044-1.161 0-.72.468-1.143 1.044-1.143.576 0 1.044.432 1.044 1.143 0 .711-.487 1.161-1.044 1.161zm.117 3.798c-.882 0-1.413-.342-1.413-.864 0-.288.144-.576.495-.828.215.054.45.081.63.081h.846c.647 0 .998.153.998.603 0 .513-.62 1.008-1.556 1.008zm3.72-1.575c.226 0 .36-.027.478-.072l-.117-.63c-.09.018-.126.018-.171.018-.126 0-.234-.099-.234-.351V1.836h-.82v6.192c0 .693.253 1.089.865 1.089zm3.224 0c.666 0 1.188-.225 1.62-.504l-.297-.54c-.36.243-.747.387-1.224.387-.927 0-1.566-.666-1.62-1.71h3.294c.018-.117.036-.288.036-.468 0-1.395-.702-2.295-1.944-2.295-1.134 0-2.205.99-2.205 2.574 0 1.611 1.044 2.556 2.34 2.556zm-1.53-2.961c.1-.954.711-1.512 1.404-1.512.765 0 1.215.531 1.215 1.512h-2.619zM126.828 9h.819V5.454c.495-.495.837-.747 1.341-.747.648 0 .927.387.927 1.305V9h.819V5.904c0-1.251-.468-1.917-1.494-1.917-.666 0-1.17.369-1.638.828h-.027l-.072-.702h-.675V9zm6.177.117c.603 0 1.152-.315 1.62-.702h.027l.072.585h.675V5.994c0-1.206-.504-2.007-1.692-2.007-.783 0-1.476.351-1.926.639l.324.567c.387-.261.9-.522 1.467-.522.801 0 1.008.603 1.008 1.233-2.079.234-3.006.765-3.006 1.827 0 .882.612 1.386 1.431 1.386zm.234-.657c-.486 0-.864-.225-.864-.783 0-.63.558-1.035 2.205-1.233v1.368c-.477.423-.864.648-1.341.648zm4.324.54h.954l1.737-4.887h-.81l-.927 2.781c-.144.477-.297.981-.45 1.44h-.036c-.153-.459-.306-.963-.459-1.44l-.918-2.781h-.855L137.563 9zm5.126.117c.666 0 1.188-.225 1.62-.504l-.297-.54c-.36.243-.747.387-1.224.387-.927 0-1.566-.666-1.62-1.71h3.294c.018-.117.036-.288.036-.468 0-1.395-.702-2.295-1.944-2.295-1.134 0-2.205.99-2.205 2.574 0 1.611 1.044 2.556 2.34 2.556zm-1.53-2.961c.099-.954.711-1.512 1.404-1.512.765 0 1.215.531 1.215 1.512h-2.619zM145.252 9h.819V5.859c.324-.837.828-1.125 1.233-1.125.198 0 .315.018.477.081l.153-.72c-.153-.081-.306-.108-.522-.108-.549 0-1.044.396-1.386 1.017h-.027l-.072-.891h-.675V9z"/>
    <circle cx="6" cy="6" r="4" fill="#CDD1FF"/>
    <circle cx="67" cy="6" r="4" fill="#D5D5D5"/>
    <circle cx="119" cy="6" r="4" fill="#898989"/>
</svg>
