<svg xmlns="http://www.w3.org/2000/svg" width="78" height="11" fill="none" viewBox="0 0 78 11">
    <path fill="#fff" d="M0 0H1920V1187H0z" transform="translate(-1234 -819)"/>
    <rect width="1437" height="469" x="-992.5" y="-388.5" fill="#fff" stroke="#D5D5D5" rx="34.5"/>
    <path fill="#898989" d="M3 3c0-.552.448-1 1-1h5c.552 0 1 .448 1 1v6H3V3zM57.004 8h.837V5.201h1.188L60.631 8h.945l-1.692-2.889c.9-.216 1.494-.828 1.494-1.854 0-1.377-.963-1.863-2.304-1.863h-2.07V8zm.837-3.474V2.078h1.107c1.035 0 1.602.306 1.602 1.179 0 .855-.567 1.269-1.602 1.269h-1.107zm6.874 3.591c1.656 0 2.817-1.323 2.817-3.438s-1.161-3.402-2.817-3.402c-1.656 0-2.817 1.287-2.817 3.402s1.16 3.438 2.817 3.438zm0-.729c-1.188 0-1.962-1.062-1.962-2.709 0-1.656.774-2.673 1.962-2.673 1.179 0 1.962 1.017 1.962 2.673 0 1.647-.783 2.709-1.962 2.709zm4.837-3.078c.234-.747.45-1.458.657-2.232h.036c.216.765.423 1.485.666 2.232l.315 1.008h-1.998l.324-1.008zM67.536 8h.846l.639-2.016h2.412L72.063 8h.882l-2.241-6.606h-.927L67.536 8zm7.726.117c1.377 0 2.24-.828 2.24-1.872 0-.981-.593-1.431-1.358-1.764l-.945-.405c-.513-.216-1.09-.459-1.09-1.098 0-.594.487-.972 1.234-.972.612 0 1.098.243 1.503.621l.44-.531c-.467-.486-1.16-.819-1.943-.819-1.197 0-2.08.738-2.08 1.755 0 .963.73 1.431 1.342 1.692l.954.414c.62.279 1.098.495 1.098 1.17 0 .648-.522 1.08-1.386 1.08-.684 0-1.35-.324-1.818-.819l-.504.567c.576.603 1.377.981 2.313.981zM17.904 2.114h1.692v3.798h-1.692V2.114zm-.693 4.383h3.069V1.529h-3.07v4.968zM23.079.593v3.195h-1.09V.773h-.692v7.488h.693v-3.87h1.089v4.266h.702V.593h-.702zm2.276 3.222c1.359-.108 2.556-.522 3.051-1.269.495.747 1.683 1.161 3.033 1.269l.225-.558c-1.503-.099-2.718-.594-2.844-1.395h2.484v-.558h-2.529V.539h-.738v.765h-2.538v.558h2.493c-.126.801-1.359 1.296-2.853 1.395l.216.558zm6.687.927v-.567h-7.281v.567h3.267v.747h-2.403v.549h4.761v.684h-4.734v1.854h5.706v-.558h-4.986v-.765h4.743V5.489h-2.34v-.747h3.267z"/>
    <circle cx="47.5" cy="5.5" r="3.5" fill="#5C6AFF"/>
    <g filter="url(#filter0_d)">
        <path stroke="#5C6AFF" stroke-linecap="round" stroke-linejoin="round" d="M41.5 5.5L53.5 5.5"/>
    </g>
    <defs>
        <filter id="filter0_d" width="21" height="9" x="37" y="5" color-interpolation-filters="sRGB" filterUnits="userSpaceOnUse">
            <feFlood flood-opacity="0" result="BackgroundImageFix"/>
            <feColorMatrix in="SourceAlpha" values="0 0 0 0 0 0 0 0 0 0 0 0 0 0 0 0 0 0 127 0"/>
            <feOffset dy="4"/>
            <feGaussianBlur stdDeviation="2"/>
            <feColorMatrix values="0 0 0 0 0 0 0 0 0 0 0 0 0 0 0 0 0 0 0.25 0"/>
            <feBlend in2="BackgroundImageFix" result="effect1_dropShadow"/>
            <feBlend in="SourceGraphic" in2="effect1_dropShadow" result="shape"/>
        </filter>
    </defs>
</svg>
