<svg xmlns="http://www.w3.org/2000/svg" width="177" height="186" fill="none" viewBox="0 0 177 186">
    <path fill="#fff" d="M0 0H1920V1187H0z" transform="translate(-765 -613)"/>
    <rect width="1437" height="469" x="-523.5" y="-182.5" fill="#fff" stroke="#D5D5D5" rx="34.5"/>
    <path fill="#D5D5D5" d="M100.096 4c-2.834 0-5.127 2.293-5.127 5.127v72.12c0 2.833 2.293 5.126 5.127 5.126h71.777c2.834 0 5.127-2.293 5.127-5.127C177 38.84 142.503 4 100.096 4z"/>
    <path fill="#CDD1FF" d="M109.594 167.504l-24.88-66.681V29.977c0-2.834-2.292-5.127-5.126-5.127C37.18 24.85 2 59.346 2 101.754 2 144.161 37.18 179 79.588 179c9.282 0 18.37-1.647 27.007-4.892 2.648-.996 3.99-3.95 2.999-6.604z"/>
    <rect width="56" height="42" x="9" y="1" fill="#5C6AFF" rx="6"/>
    <path fill="#5C6AFF" d="M37.366 47.5c-.385.667-1.347.667-1.732 0l-3.031-5.25c-.385-.667.096-1.5.866-1.5h6.062c.77 0 1.251.833.866 1.5l-3.031 5.25z"/>
    <path fill="#fff" d="M18.38 18h.91v-4.69h1.15v-.74h-1.15v-.86c0-.7.25-1.07.77-1.07.19 0 .41.05.61.14l.2-.69c-.25-.11-.58-.18-.91-.18-1.08 0-1.58.69-1.58 1.79v.87l-.74.05v.69h.74V18zm3.627.13c.67 0 1.28-.35 1.8-.78h.03l.08.65h.75v-3.34c0-1.34-.56-2.23-1.88-2.23-.87 0-1.64.39-2.14.71l.36.63c.43-.29 1-.58 1.63-.58.89 0 1.12.67 1.12 1.37-2.31.26-3.34.85-3.34 2.03 0 .98.68 1.54 1.59 1.54zm.26-.73c-.54 0-.96-.25-.96-.87 0-.7.62-1.15 2.45-1.37v1.52c-.53.47-.96.72-1.49.72zm5.774.73c.65 0 1.27-.25 1.76-.69l-.4-.61c-.34.31-.78.54-1.28.54-1 0-1.68-.83-1.68-2.08s.72-2.1 1.71-2.1c.43 0 .76.2 1.08.48l.47-.6c-.39-.34-.88-.64-1.59-.64-1.39 0-2.62 1.05-2.62 2.86 0 1.8 1.11 2.84 2.55 2.84zm4.394 0c.74 0 1.32-.25 1.8-.56l-.33-.6c-.4.27-.83.43-1.36.43-1.03 0-1.74-.74-1.8-1.9h3.66c.02-.13.04-.32.04-.52 0-1.55-.78-2.55-2.16-2.55-1.26 0-2.45 1.1-2.45 2.86 0 1.79 1.16 2.84 2.6 2.84zm-1.7-3.29c.11-1.06.79-1.68 1.56-1.68.85 0 1.35.59 1.35 1.68h-2.91zm6.937 3.29c1.25 0 2.36-1.07 2.36-2.94 0-1.66-.76-2.76-2.17-2.76-.6 0-1.21.34-1.7.77l.03-.98v-2.18h-.91V18h.73l.08-.56h.04c.47.43 1.04.69 1.54.69zm-.15-.76c-.36 0-.85-.15-1.33-.57v-2.85c.52-.49 1-.75 1.46-.75 1.03 0 1.43.81 1.43 2.01 0 1.35-.66 2.16-1.56 2.16zm5.552.76c1.33 0 2.52-1.04 2.52-2.84 0-1.81-1.19-2.86-2.52-2.86s-2.52 1.05-2.52 2.86c0 1.8 1.19 2.84 2.52 2.84zm0-.76c-.94 0-1.57-.83-1.57-2.08s.63-2.1 1.57-2.1c.94 0 1.58.85 1.58 2.1s-.64 2.08-1.58 2.08zm5.564.76c1.33 0 2.52-1.04 2.52-2.84 0-1.81-1.19-2.86-2.52-2.86s-2.52 1.05-2.52 2.86c0 1.8 1.19 2.84 2.52 2.84zm0-.76c-.94 0-1.57-.83-1.57-2.08s.63-2.1 1.57-2.1c.94 0 1.58.85 1.58 2.1s-.64 2.08-1.58 2.08zm3.455.63h.9v-1.43l1.02-1.19 1.59 2.62h.99l-2.05-3.24 1.81-2.19h-1.02l-2.31 2.87h-.03v-5.4h-.9V18zM23.87 32h4.02v-.76h-1.47v-6.37h-.7c-.4.24-.87.41-1.52.52v.59h1.3v5.26h-1.63V32zm5.317-2.7l1.67-2.45c.21-.35.41-.66.59-1h.04c-.02.38-.05.99-.05 1.36v2.09h-2.25zm2.25 2.7h.86v-1.97h.97v-.73h-.97v-4.43h-1.01l-3.05 4.56v.6h3.2V32zm2.397 1.9c.9-.38 1.46-1.13 1.46-2.09 0-.67-.29-1.08-.77-1.08-.37 0-.69.25-.69.64 0 .42.32.64.67.64.04 0 .07 0 .11-.01 0 .59-.37 1.08-1 1.36l.22.54zm4.323-1.77c1.38 0 2.3-.83 2.3-1.9 0-.95-.61-1.45-1.24-1.83v-.05c.43-.33.98-.97.98-1.72 0-1.11-.76-1.89-2.01-1.89-1.14 0-2.01.73-2.01 1.82 0 .76.46 1.29.99 1.65v.04c-.67.36-1.35 1-1.35 1.93 0 1.13.99 1.95 2.34 1.95zm.5-4.01c-.86-.34-1.65-.7-1.65-1.56 0-.69.49-1.14 1.17-1.14.79 0 1.24.56 1.24 1.26 0 .53-.27 1-.76 1.44zm-.48 3.33c-.88 0-1.53-.57-1.53-1.35 0-.66.42-1.19 1-1.56 1.04.41 1.94.74 1.94 1.67 0 .73-.57 1.24-1.41 1.24zm5.017.68c1.42 0 2.28-1.33 2.28-3.72 0-2.38-.86-3.67-2.28-3.67s-2.29 1.28-2.29 3.67c0 2.39.87 3.72 2.29 3.72zm0-.73c-.84 0-1.4-.9-1.4-2.99 0-2.09.56-2.94 1.4-2.94.83 0 1.39.85 1.39 2.94s-.56 2.99-1.39 2.99zm2.707.6h4.61v-.79h-2.07c-.38 0-.82.04-1.2.07 1.69-1.78 2.91-3.11 2.91-4.45 0-1.26-.82-2.09-2.13-2.09-.93 0-1.56.43-2.16 1.08l.53.51c.4-.47.92-.85 1.52-.85.91 0 1.35.58 1.35 1.39 0 1.17-1.21 2.45-3.36 4.59V32z"/>
    <path fill="#898989" d="M171.873 96.627h-71.777c-1.683 0-3.255.826-4.216 2.208-.956 1.382-1.176 3.144-.586 4.721l25.204 67.553c.481 1.272 1.442 2.303 2.684 2.864 1.242.565 2.643.613 3.925.13C156.948 162.873 177 133.597 177 101.754c0-2.834-2.293-5.127-5.127-5.127z"/>
    <path fill="#3E3E3E" d="M121.789 56h4.61v-.79h-2.03c-.37 0-.82.04-1.2.07 1.72-1.63 2.87-3.12 2.87-4.58 0-1.31-.82-2.17-2.13-2.17-.93 0-1.56.43-2.16 1.08l.53.52c.4-.48.92-.85 1.52-.85.91 0 1.35.61 1.35 1.45 0 1.26-1.06 2.72-3.36 4.73V56zm7.217.13c1.24 0 2.4-.91 2.4-2.52 0-1.61-.99-2.33-2.21-2.33-.44 0-.76.11-1.09.29l.18-2.12h2.77v-.79h-3.57l-.23 3.44.49.3c.42-.28.73-.43 1.22-.43.92 0 1.52.62 1.52 1.67 0 1.07-.7 1.73-1.56 1.73-.85 0-1.38-.39-1.8-.81l-.45.6c.49.49 1.19.97 2.33.97zm4.486-2.97c1.01 0 1.67-.85 1.67-2.33 0-1.47-.66-2.3-1.67-2.3-1 0-1.66.83-1.66 2.3 0 1.48.66 2.33 1.66 2.33zm0-.57c-.57 0-.97-.59-.97-1.76s.4-1.74.97-1.74c.58 0 .98.57.98 1.74s-.4 1.76-.98 1.76zm.22 3.54h.61l4.05-7.6h-.62l-4.04 7.6zm4.89 0c1 0 1.66-.84 1.66-2.32 0-1.47-.66-2.3-1.66-2.3-1 0-1.67.83-1.67 2.3 0 1.48.67 2.32 1.67 2.32zm0-.56c-.58 0-.97-.59-.97-1.76s.39-1.74.97-1.74c.57 0 .97.57.97 1.74s-.4 1.76-.97 1.76zM42.959 108.13c1.24 0 2.4-.91 2.4-2.52 0-1.61-.99-2.33-2.21-2.33-.44 0-.76.11-1.09.29l.18-2.12h2.77v-.79h-3.57l-.23 3.44.49.3c.42-.28.73-.43 1.22-.43.92 0 1.52.62 1.52 1.67 0 1.07-.7 1.73-1.56 1.73-.85 0-1.38-.39-1.8-.81l-.45.6c.49.49 1.19.97 2.33.97zm3.586-2.88l1.67-2.5c.21-.36.41-.72.59-1.08h.04c-.02.38-.05.97-.05 1.33v2.25h-2.25zm2.25 2.75h.86v-2.02h.97v-.73h-.97v-4.59h-1.01l-3.05 4.72v.6h3.2V108zm3.697-2.84c1.01 0 1.67-.85 1.67-2.33 0-1.47-.66-2.3-1.67-2.3-1 0-1.66.83-1.66 2.3 0 1.48.66 2.33 1.66 2.33zm0-.57c-.57 0-.97-.59-.97-1.76s.4-1.74.97-1.74c.58 0 .98.57.98 1.74s-.4 1.76-.98 1.76zm.22 3.54h.61l4.05-7.6h-.62l-4.04 7.6zm4.89 0c1 0 1.66-.84 1.66-2.32 0-1.47-.66-2.3-1.66-2.3-1 0-1.67.83-1.67 2.3 0 1.48.67 2.32 1.67 2.32zm0-.56c-.58 0-.97-.59-.97-1.76s.39-1.74.97-1.74c.57 0 .97.57.97 1.74s-.4 1.76-.97 1.76zM126.789 129h4.61v-.79h-2.03c-.37 0-.82.04-1.2.07 1.72-1.63 2.87-3.12 2.87-4.58 0-1.31-.82-2.17-2.13-2.17-.93 0-1.56.43-2.16 1.08l.53.52c.4-.48.92-.85 1.52-.85.91 0 1.35.61 1.35 1.45 0 1.26-1.06 2.72-3.36 4.73v.54zm5.487 0h4.02v-.76h-1.47v-6.58h-.7c-.4.24-.87.41-1.52.53v.58h1.3v5.47h-1.63v.76zm6.216-2.84c1.01 0 1.67-.85 1.67-2.33 0-1.47-.66-2.3-1.67-2.3-1 0-1.66.83-1.66 2.3 0 1.48.66 2.33 1.66 2.33zm0-.57c-.57 0-.97-.59-.97-1.76s.4-1.74.97-1.74c.58 0 .98.57.98 1.74s-.4 1.76-.98 1.76zm.22 3.54h.61l4.05-7.6h-.62l-4.04 7.6zm4.89 0c1 0 1.66-.84 1.66-2.32 0-1.47-.66-2.3-1.66-2.3-1 0-1.67.83-1.67 2.3 0 1.48.67 2.32 1.67 2.32zm0-.56c-.58 0-.97-.59-.97-1.76s.39-1.74.97-1.74c.57 0 .97.57.97 1.74s-.4 1.76-.97 1.76z"/>
</svg>
