<svg xmlns="http://www.w3.org/2000/svg" width="13" height="13" fill="none" viewBox="0 0 13 13">
    <g clip-path="url(#clip0)">
        <path fill="#898989" d="M11.25 0H1.752C.785 0 0 .784 0 1.752v9.496C.001 12.216.785 13 1.753 13h4.683l.008-4.646H5.237c-.156 0-.284-.126-.284-.283l-.006-1.498c0-.157.127-.286.285-.286h1.204V4.841c0-1.68 1.026-2.594 2.524-2.594h1.229c.157 0 .285.128.285.285v1.263c0 .157-.128.284-.285.284h-.754c-.815 0-.973.388-.973.956v1.253h1.79c.17 0 .303.148.283.318l-.177 1.497c-.017.144-.139.252-.283.252H8.47L8.462 13h2.787c.968 0 1.752-.784 1.752-1.752V1.752C13 .784 12.217 0 11.249 0z"/>
    </g>
    <defs>
        <clipPath id="clip0">
            <path fill="#fff" d="M0 0H13V13H0z"/>
        </clipPath>
    </defs>
</svg>
