<svg xmlns="http://www.w3.org/2000/svg" width="13" height="13" fill="none" viewBox="0 0 13 13">
    <g fill="#898989" clip-path="url(#clip0)">
        <path d="M2.881 7.856l-.452 1.69-1.654.034C.28 8.663 0 7.615 0 6.5c0-1.078.262-2.094.727-2.99l1.473.27.645 1.464c-.135.394-.209.816-.209 1.256 0 .477.087.934.245 1.356zM12.886 5.286c.075.393.114.799.114 1.214 0 .465-.049.92-.142 1.357-.317 1.49-1.143 2.791-2.289 3.712l-1.855-.095-.262-1.639c.76-.445 1.354-1.143 1.666-1.978H6.643V5.286h6.243z"/>
        <path d="M10.569 11.569C9.455 12.464 8.04 13 6.5 13 4.025 13 1.873 11.617.775 9.58L2.88 7.856c.549 1.465 1.962 2.508 3.619 2.508.712 0 1.38-.193 1.952-.529l2.117 1.734zM10.649 1.496L8.543 3.22c-.592-.37-1.293-.584-2.043-.584-1.694 0-3.134 1.09-3.655 2.608L.727 3.511C1.809 1.425 3.987 0 6.5 0c1.577 0 3.023.562 4.149 1.496z"/>
    </g>
    <defs>
        <clipPath id="clip0">
            <path fill="#fff" d="M0 0H13V13H0z"/>
        </clipPath>
    </defs>
</svg>
