<?xml version="1.0" encoding="utf-8"?>
<!-- Generator: Adobe Illustrator 25.2.1, SVG Export Plug-In . SVG Version: 6.00 Build 0)  -->
<svg version="1.1" id="레이어_1" xmlns="http://www.w3.org/2000/svg" xmlns:xlink="http://www.w3.org/1999/xlink" x="0px"
	 y="0px" viewBox="0 0 574 176.2" style="enable-background:new 0 0 574 176.2;" xml:space="preserve">
<style type="text/css">
	.st0{fill:#1C1C1C;}
</style>
<g>
	<path class="st0" d="M154.5,39.9c-38.4,0-66.2,28.7-66.2,68.2c0,39.5,27.8,68.2,66.2,68.2c29.2,0,53.8-15.7,61.2-39l1.3-4.1h-29.5
		l-0.8,1.9c-4.4,9.6-17.3,16.1-32.2,16.1c-18.9,0-33.1-12-36.7-30.7h101.8l0.4-2.7c0.5-3.2,0.5-6.6,0.5-9.5
		C220.4,68.6,192.7,39.9,154.5,39.9z M154.5,65.1c19.2,0,33.2,11.7,36.9,30.7h-73.6C121.3,76.8,135.2,65.1,154.5,65.1z"/>
	<path class="st0" d="M423.1,39.9c-38.4,0-66.2,28.7-66.2,68.2c0,39.5,27.8,68.2,66.2,68.2c29.2,0,53.8-15.7,61.2-39l1.3-4.1h-29.5
		l-0.8,1.9c-4.4,9.6-17.3,16.1-32.2,16.1c-18.9,0-33.1-12-36.7-30.7h101.8l0.4-2.7c0.5-3.2,0.5-6.6,0.5-9.5
		C489,68.6,461.3,39.9,423.1,39.9z M386.4,95.8c3.5-19,17.4-30.7,36.7-30.7c19.2,0,33.2,11.7,36.9,30.7H386.4z"/>
	<path class="st0" d="M298.6,176.2h-21.3c-1.9,0-3.6-1.2-4.3-3L220.4,51.6l26.3-11.6l41.4,97.3l43.4-97.3l25.3,12l-54,121.3
		C302.1,175.1,300.4,176.2,298.6,176.2z"/>
	<path class="st0" d="M81.8,176.2c-45.9,0-65.7-25.6-73.4-40.9C2.9,124.5,0,111.9,0,98.9V0h29.3v98.9c0,8.4,1.8,16.5,5.2,23.2
		c8.3,16.5,24.2,24.8,47.3,24.8V176.2z"/>
	<path class="st0" d="M525.7,176.2h-29.3v-74.7c-0.2-4.7-0.4-28.4,14.9-45.5c6.6-7.4,18.8-16.2,39.2-16.2H574v30.6h-23.4
		c-8.1,0-13.9,2.1-17.8,6.5c-7.6,8.4-7,23-7,23.2l0,1V176.2z"/>
</g>
</svg>
