<svg xmlns="http://www.w3.org/2000/svg" width="17" height="10" fill="none" viewBox="0 0 17 10">
    <g clip-path="url(#clip0)">
        <path fill="#fff" d="M337-4804h-1920v6886H337v-6886z"/>
        <path fill="#D5D5D5" d="M16.912.836l-.557-.558c-.175-.173-.411-.27-.658-.27-.246 0-.482.097-.657.27L8.684 6.602 2.324.268c-.175-.173-.411-.27-.658-.27-.246 0-.482.097-.657.27L.452.823c-.086.086-.155.188-.202.3-.046.113-.07.233-.07.355 0 .122.024.242.07.354.047.113.116.215.202.3l7.576 7.57c.172.183.408.29.659.3.25-.01.486-.118.657-.3l7.565-7.547c.174-.176.272-.413.272-.66 0-.247-.098-.485-.272-.66h.003z"/>
    </g>
    <defs>
        <clipPath id="clip0">
            <path fill="#fff" d="M0 0H1920V6886H0z" transform="translate(-1583 -4804)"/>
        </clipPath>
    </defs>
</svg>
