<?xml version="1.0" encoding="utf-8"?>
<!-- Generator: Adobe Illustrator 25.2.1, SVG Export Plug-In . SVG Version: 6.00 Build 0)  -->
<svg version="1.1" id="레이어_1" xmlns="http://www.w3.org/2000/svg" xmlns:xlink="http://www.w3.org/1999/xlink" x="0px"
	 y="0px" viewBox="0 0 1920 1080" style="enable-background:new 0 0 1920 1080;" xml:space="preserve">
<style type="text/css">
	.st0{fill:#1C1C1C;}
</style>
<path class="st0" d="M827.18,429.81c-38.36,0-66.2,28.66-66.2,68.16c0,39.49,27.84,68.16,66.2,68.16
	c29.21,0,53.81-15.69,61.23-39.05l1.3-4.12h-29.48l-0.84,1.87c-4.36,9.63-17.31,16.11-32.22,16.11c-18.9,0-33.12-11.98-36.68-30.7
	h101.8l0.4-2.72c0.47-3.25,0.47-6.6,0.47-9.55C893.16,458.48,865.41,429.81,827.18,429.81z M827.18,455.01
	c19.19,0,33.18,11.71,36.88,30.7h-73.58C794.01,466.71,807.92,455.01,827.18,455.01z"/>
<path class="st0" d="M1095.78,429.81c-38.36,0-66.2,28.66-66.2,68.16c0,39.49,27.84,68.16,66.2,68.16
	c29.21,0,53.81-15.69,61.23-39.04l1.31-4.13h-29.48l-0.84,1.87c-4.37,9.63-17.31,16.11-32.22,16.11c-18.9,0-33.11-11.98-36.68-30.7
	h101.8l0.4-2.72c0.47-3.25,0.47-6.6,0.47-9.55C1161.77,458.48,1134.02,429.81,1095.78,429.81z M1059.09,485.7
	c3.53-18.99,17.44-30.7,36.7-30.7c19.2,0,33.18,11.71,36.88,30.7H1059.09z"/>
<path class="st0" d="M971.3,566.13h-21.34c-1.87,0-3.57-1.18-4.35-3.04l-52.44-121.64l26.3-11.63l41.41,97.34l43.41-97.34
	l25.3,12.04l-53.97,121.32C974.81,564.98,973.13,566.13,971.3,566.13z"/>
<path class="st0" d="M754.51,566.13c-45.91,0-65.71-25.64-73.43-40.93c-5.47-10.83-8.36-23.42-8.36-36.42V389.9h29.29v98.88
	c0,8.43,1.8,16.46,5.22,23.22c8.32,16.49,24.23,24.84,47.28,24.84V566.13z"/>
<path class="st0" d="M1198.42,566.13h-29.29v-74.67c-0.2-4.71-0.38-28.43,14.93-45.47c6.63-7.38,18.82-16.18,39.19-16.18h23.42
	v30.61h-23.42c-8.06,0-13.9,2.13-17.84,6.52c-7.55,8.4-7.03,23.02-7.02,23.17l0.03,0.96V566.13z"/>
</svg>
